<svg width="213" height="157" viewBox="0 0 213 157" fill="none" xmlns="http://www.w3.org/2000/svg">
<path d="M191.572 146.261H177.469V146.367H191.572V146.261Z" fill="#DED9D9"/>
<path d="M141.036 147.419H137.336V147.526H141.036V147.419Z" fill="#DED9D9"/>
<path d="M177.043 142.31H168.872V142.416H177.043V142.31Z" fill="#DED9D9"/>
<path d="M40.7286 143.025H22.3379V143.131H40.7286V143.025Z" fill="#DED9D9"/>
<path d="M47.2178 143.025H44.5225V143.131H47.2178V143.025Z" fill="#DED9D9"/>
<path d="M95.8707 144.822H55.981V144.928H95.8707V144.822Z" fill="#DED9D9"/>
<path d="M100.917 120.419H18.7014C18.0565 120.419 17.4381 120.163 16.9822 119.707C16.5262 119.251 16.27 118.632 16.27 117.987V2.41008C16.2756 1.76894 16.5343 1.15596 16.9896 0.704588C17.445 0.253213 18.0602 -2.45802e-05 18.7014 1.78948e-09H100.917C101.561 1.78949e-09 102.18 0.256161 102.636 0.712131C103.092 1.1681 103.348 1.78653 103.348 2.43137V117.987C103.348 118.632 103.092 119.251 102.636 119.707C102.18 120.163 101.561 120.419 100.917 120.419ZM18.7014 0.0851621C18.0851 0.0862877 17.4944 0.331594 17.0587 0.767357C16.6229 1.20312 16.3776 1.79382 16.3765 2.41008V117.987C16.3776 118.604 16.6229 119.194 17.0587 119.63C17.4944 120.066 18.0851 120.311 18.7014 120.312H100.917C101.533 120.311 102.124 120.066 102.559 119.63C102.995 119.194 103.24 118.604 103.241 117.987V2.41008C103.24 1.79382 102.995 1.20312 102.559 0.767357C102.124 0.331594 101.533 0.0862877 100.917 0.0851621H18.7014Z" fill="#DED9D9"/>
<path d="M193.023 120.419H110.8C110.155 120.418 109.538 120.161 109.082 119.705C108.626 119.25 108.37 118.632 108.368 117.987V2.41008C108.375 1.76928 108.634 1.15696 109.089 0.705818C109.544 0.25468 110.159 0.00108508 110.8 0H193.023C193.663 0.00221612 194.276 0.256443 194.73 0.707578C195.183 1.15871 195.441 1.77041 195.446 2.41008V117.987C195.446 118.631 195.191 119.248 194.737 119.704C194.283 120.159 193.667 120.416 193.023 120.419ZM110.8 0.0851621C110.184 0.0862877 109.593 0.331594 109.157 0.767357C108.721 1.20312 108.476 1.79382 108.475 2.41008V117.987C108.476 118.604 108.721 119.194 109.157 119.63C109.593 120.066 110.184 120.311 110.8 120.312H193.023C193.64 120.311 194.23 120.066 194.666 119.63C195.102 119.194 195.347 118.604 195.348 117.987V2.41008C195.347 1.79382 195.102 1.20312 194.666 0.767357C194.23 0.331594 193.64 0.0862877 193.023 0.0851621H110.8Z" fill="#DED9D9"/>
<path d="M212.904 139.41H0V139.516H212.904V139.41Z" fill="#DED9D9"/>
<path d="M177.456 16.8918H124.319V73.4776H177.456V16.8918Z" fill="#DED9D9"/>
<path d="M174.262 20.0854H127.513V70.284H174.262V20.0854Z" fill="#F5F5F5"/>
<path d="M145.861 70.284H159.913L173.104 20.0854H159.052L145.861 70.284Z" fill="#DDE7F3"/>
<path d="M152.525 20.0854L139.333 70.284H142.74L155.931 20.0854H152.525Z" fill="#DDE7F3"/>
<path d="M178.124 19.5531H123.646L122.497 16.8705H179.274L178.124 19.5531Z" fill="#F5F5F5"/>
<path d="M178.124 21.1073H123.646L122.497 18.4247H179.274L178.124 21.1073Z" fill="#F0F0F0"/>
<path d="M178.124 22.6616H123.646L122.497 19.979H179.274L178.124 22.6616Z" fill="#F3EEEE"/>
<path d="M178.124 24.2158H123.646L122.497 21.5332H179.274L178.124 24.2158Z" fill="#E0E0E0"/>
<path d="M181.258 13.5109H120.517V17.0877H181.258V13.5109Z" fill="#E0E0E0"/>
<path d="M121.138 49.5173C120.975 49.5173 120.818 49.4522 120.702 49.3364C120.586 49.2206 120.521 49.0636 120.521 48.8998V28.0352C120.521 27.8715 120.586 27.7144 120.702 27.5986C120.818 27.4828 120.975 27.4178 121.138 27.4178C121.302 27.4178 121.459 27.4828 121.575 27.5986C121.691 27.7144 121.756 27.8715 121.756 28.0352V48.8998C121.756 49.0636 121.691 49.2206 121.575 49.3364C121.459 49.4522 121.302 49.5173 121.138 49.5173Z" fill="#E0E0E0"/>
<path d="M121.36 16.3723H120.913V28.7634H121.36V16.3723Z" fill="#E0E0E0"/>
<path d="M38.5443 15.7976H37.7778V75.5684H38.5443V15.7976Z" fill="#E0E0E0"/>
<path d="M86.256 15.7976H85.4895V75.5684H86.256V15.7976Z" fill="#E0E0E0"/>
<path d="M89.2624 19.5531H34.7759L33.6262 16.8705H90.4078L89.2624 19.5531Z" fill="#F5F5F5"/>
<path d="M89.2624 23.2363H34.7759L33.6262 20.5537H90.4078L89.2624 23.2363Z" fill="#F5F5F5"/>
<path d="M89.2624 26.9196H34.7759L33.6262 24.237H90.4078L89.2624 26.9196Z" fill="#F5F5F5"/>
<path d="M89.2624 30.6028H34.7759L33.6262 27.9202H90.4078L89.2624 30.6028Z" fill="#F5F5F5"/>
<path d="M89.2624 34.2861H34.7759L33.6262 31.6035H90.4078L89.2624 34.2861Z" fill="#F5F5F5"/>
<path d="M89.2624 37.9694H34.7759L33.6262 35.2868H90.4078L89.2624 37.9694Z" fill="#F5F5F5"/>
<path d="M89.2624 41.6526H34.7759L33.6262 38.97H90.4078L89.2624 41.6526Z" fill="#F5F5F5"/>
<path d="M89.2624 45.3359H34.7759L33.6262 42.6533H90.4078L89.2624 45.3359Z" fill="#F5F5F5"/>
<path d="M89.2624 49.0191H34.7759L33.6262 46.3365H90.4078L89.2624 49.0191Z" fill="#F5F5F5"/>
<path d="M89.2624 52.7023H34.7759L33.6262 50.0197H90.4078L89.2624 52.7023Z" fill="#F5F5F5"/>
<path d="M89.2624 56.3856H34.7759L33.6262 53.703H90.4078L89.2624 56.3856Z" fill="#F5F5F5"/>
<path d="M89.2624 60.0646H34.7759L33.6262 57.382H90.4078L89.2624 60.0646Z" fill="#F5F5F5"/>
<path d="M89.2624 63.7522H34.7759L33.6262 61.0653H90.4078L89.2624 63.7522Z" fill="#F5F5F5"/>
<path d="M89.2624 67.4311H34.7759L33.6262 64.7485H90.4078L89.2624 67.4311Z" fill="#F5F5F5"/>
<path d="M89.2624 71.1143H34.7759L33.6262 68.4317H90.4078L89.2624 71.1143Z" fill="#F5F5F5"/>
<path d="M89.2624 74.7976H34.7759L33.6262 72.115H90.4078L89.2624 74.7976Z" fill="#F5F5F5"/>
<path d="M90.4078 74.7977H33.6262V76.3306H90.4078V74.7977Z" fill="#E0E0E0"/>
<path d="M92.3876 13.5109H31.646V17.0877H92.3876V13.5109Z" fill="#E0E0E0"/>
<path d="M32.272 49.5173C32.1082 49.5173 31.9512 49.4522 31.8354 49.3364C31.7196 49.2206 31.6545 49.0636 31.6545 48.8998V28.0352C31.6545 27.8715 31.7196 27.7144 31.8354 27.5986C31.9512 27.4828 32.1082 27.4178 32.272 27.4178C32.4357 27.4178 32.5928 27.4828 32.7086 27.5986C32.8243 27.7144 32.8894 27.8715 32.8894 28.0352V48.8998C32.8894 49.0636 32.8243 49.2206 32.7086 49.3364C32.5928 49.4522 32.4357 49.5173 32.272 49.5173Z" fill="#E0E0E0"/>
<path d="M32.4935 16.3723H32.0464V28.7634H32.4935V16.3723Z" fill="#E0E0E0"/>
<path d="M38.0333 113.853C37.9822 113.908 38.2675 114.308 37.1007 114.134C34.2265 113.708 29.2233 112.537 27.8309 109.582C25.8424 105.362 32.0081 106.904 31.7952 104.745C31.5823 102.586 24.5564 102.961 23.8198 99.7968C23.0831 96.6331 27.8351 98.1404 27.899 96.599C27.9629 95.0576 22.4785 96.0114 21.3884 92.5964C20.2983 89.1814 24.4457 91.6979 23.9688 90.2757C23.4919 88.8535 18.8591 82.4366 21.3756 81.6914C23.8922 80.9463 28.1545 87.5335 29.8066 88.4661C31.4588 89.3986 32.9065 84.0206 34.8652 86.2944C36.824 88.5683 33.7156 96.5138 36.2108 98.051C38.0716 99.2007 37.5478 96.0369 40.0005 96.6288C43.3176 97.4293 42.1977 109.194 38.0333 113.853Z" fill="#DED9D9"/>
<path d="M29.1636 96.616C30.0093 96.6785 30.8435 96.8488 31.6461 97.1227C31.114 96.3235 30.5233 95.5649 29.879 94.8531C29.8443 94.8122 29.8265 94.7596 29.8289 94.706C29.8314 94.6525 29.8539 94.6018 29.8921 94.5641C29.9303 94.5265 29.9813 94.5046 30.0349 94.5029C30.0885 94.5013 30.1408 94.5199 30.1813 94.5551C31.5702 96.1127 32.7589 97.8378 33.7198 99.6903C34.6267 94.2442 32.3444 89.4709 32.3188 89.4368C32.3052 89.3992 32.306 89.3579 32.3211 89.3209C32.3361 89.2838 32.3644 89.2537 32.4004 89.2362C32.4363 89.2188 32.4775 89.2152 32.5159 89.2263C32.5543 89.2374 32.5873 89.2624 32.6084 89.2963C32.6339 89.3474 35.0653 94.4273 33.9625 100.142C34.2563 100.699 34.5543 101.3 34.8439 101.943C35.8742 104.235 36.6882 106.619 37.2753 109.062C38.3387 107.056 38.9218 104.83 38.9785 102.56C38.979 102.54 38.9837 102.519 38.9921 102.5C39.0005 102.481 39.0126 102.464 39.0276 102.45C39.0427 102.436 39.0603 102.425 39.0797 102.417C39.099 102.41 39.1196 102.406 39.1403 102.407C39.1616 102.408 39.1825 102.412 39.2019 102.421C39.2213 102.43 39.2389 102.442 39.2535 102.457C39.2681 102.473 39.2796 102.491 39.2872 102.511C39.2948 102.531 39.2984 102.552 39.2979 102.573C39.2467 105.007 38.5928 107.39 37.3945 109.509C38.481 114.318 38.8441 119.263 38.4718 124.179C38.4702 124.207 38.463 124.234 38.4508 124.259C38.4386 124.284 38.4215 124.307 38.4005 124.326C38.3795 124.344 38.3551 124.358 38.3286 124.368C38.3021 124.377 38.2741 124.38 38.2461 124.379H38.2206C38.169 124.369 38.1229 124.341 38.0913 124.299C38.0598 124.257 38.0451 124.205 38.0502 124.153C38.574 116.488 37.4328 110.353 35.8488 105.694C34.9698 104.676 33.7668 103.992 32.4423 103.757C32.4013 103.749 32.3649 103.725 32.3404 103.691C32.316 103.657 32.3052 103.615 32.3103 103.574C32.3129 103.553 32.3197 103.533 32.3301 103.515C32.3406 103.497 32.3545 103.481 32.3712 103.468C32.3878 103.455 32.4068 103.446 32.4271 103.441C32.4473 103.436 32.4685 103.434 32.4892 103.437C33.6507 103.638 34.7282 104.174 35.5891 104.979C34.6689 102.387 33.4515 99.9109 31.9612 97.5996C31.0631 97.2243 30.1092 96.9999 29.1381 96.9353C29.0959 96.9321 29.0567 96.9124 29.0288 96.8806C29.0009 96.8487 28.9867 96.8072 28.989 96.765C28.9901 96.7435 28.9955 96.7225 29.0049 96.7032C29.0144 96.6839 29.0277 96.6667 29.0441 96.6528C29.0605 96.6388 29.0795 96.6283 29.1 96.622C29.1206 96.6157 29.1422 96.6136 29.1636 96.616Z" fill="#F5F5F5"/>
<path d="M41.7294 115.484C44.1182 115.526 48.1974 113.308 49.8197 111.153C51.4421 108.999 46.8731 110.302 47.3415 108.598C47.8099 106.895 53.4476 108.151 54.4866 105.686C55.5256 103.22 51.4634 103.791 51.6252 102.531C51.787 101.27 55.9982 101.53 57.348 98.9112C58.6979 96.2924 54.9976 97.7615 55.5767 96.6757C56.1558 95.5899 60.8014 91.0252 58.8597 90.0756C56.918 89.1261 52.562 93.8781 51.1057 94.4104C49.6494 94.9426 49.3045 91.6554 47.4054 93.2266C45.5063 94.7978 46.9285 101.662 44.6973 102.569C43.0324 103.246 43.7392 100.099 41.8231 100.895C38.4336 102.288 40.7458 115.462 41.7294 115.484Z" fill="#E0E0E0"/>
<g opacity="0.3">
<path d="M41.7294 115.484C44.1182 115.526 48.1974 113.308 49.8197 111.153C51.4421 108.999 46.8731 110.302 47.3415 108.598C47.8099 106.895 53.4476 108.151 54.4866 105.686C55.5256 103.22 51.4634 103.791 51.6252 102.531C51.787 101.27 55.9982 101.53 57.348 98.9112C58.6979 96.2924 54.9976 97.7615 55.5767 96.6757C56.1558 95.5899 60.8014 91.0252 58.8597 90.0756C56.918 89.1261 52.562 93.8781 51.1057 94.4104C49.6494 94.9426 49.3045 91.6554 47.4054 93.2266C45.5063 94.7978 46.9285 101.662 44.6973 102.569C43.0324 103.246 43.7392 100.099 41.8231 100.895C38.4336 102.288 40.7458 115.462 41.7294 115.484Z" fill="#E0E0E0"/>
</g>
<path d="M42.5043 112.618C42.4682 112.605 42.4381 112.579 42.4192 112.545C41.5088 110.547 41.1388 108.345 41.3461 106.158C41.3447 106.135 41.3483 106.112 41.3566 106.09C41.3649 106.069 41.3777 106.049 41.3943 106.033C41.4108 106.017 41.4306 106.004 41.4524 105.996C41.4742 105.988 41.4974 105.985 41.5205 105.987C41.5436 105.989 41.5661 105.996 41.5863 106.007C41.6066 106.018 41.6242 106.034 41.6379 106.052C41.6517 106.071 41.6612 106.092 41.666 106.115C41.6707 106.138 41.6706 106.161 41.6655 106.184C41.4871 108.259 41.8189 110.347 42.6321 112.264C43.6194 109.601 44.8361 107.028 46.2685 104.574C45.8427 99.4646 48.4742 95.2491 48.4997 95.2065C48.5223 95.171 48.5581 95.1458 48.5992 95.1366C48.6403 95.1274 48.6834 95.135 48.719 95.1576C48.7546 95.1802 48.7797 95.2159 48.7889 95.2571C48.7981 95.2982 48.7906 95.3413 48.768 95.3769C47.246 98.02 46.4814 101.031 46.558 104.08C48.2749 101.135 50.3236 98.3964 52.6641 95.9176C52.6834 95.8955 52.707 95.8776 52.7335 95.865C52.76 95.8524 52.7888 95.8454 52.8181 95.8445C52.8475 95.8436 52.8767 95.8487 52.9039 95.8596C52.9311 95.8705 52.9558 95.8869 52.9764 95.9078C52.997 95.9287 53.0131 95.9536 53.0236 95.981C53.0341 96.0084 53.0388 96.0377 53.0375 96.067C53.0362 96.0963 53.0288 96.125 53.0158 96.1513C53.0029 96.1777 52.9846 96.201 52.9622 96.22C51.233 98.0393 49.6724 100.012 48.2996 102.113C49.738 101.571 51.2634 101.297 52.8004 101.304C52.8426 101.306 52.8822 101.325 52.9108 101.356C52.9395 101.387 52.9548 101.428 52.9537 101.47C52.9526 101.511 52.9355 101.55 52.9061 101.579C52.8766 101.607 52.8372 101.623 52.7961 101.623C51.1438 101.61 49.5058 101.93 47.9802 102.565C47.0396 104.009 46.1727 105.499 45.3828 107.031C46.0243 106.586 46.7547 106.286 47.5237 106.15C48.2927 106.015 49.0819 106.048 49.8368 106.248C49.8778 106.259 49.9129 106.285 49.9344 106.322C49.9559 106.359 49.9621 106.402 49.9517 106.444C49.9463 106.464 49.9369 106.483 49.9241 106.499C49.9113 106.516 49.8953 106.53 49.877 106.54C49.8588 106.55 49.8387 106.557 49.8179 106.559C49.7971 106.562 49.776 106.56 49.7559 106.554C48.9375 106.344 48.0799 106.338 47.2586 106.537C46.4373 106.736 45.6776 107.134 45.0464 107.696C42.301 113.138 40.7354 119.099 40.4519 125.188C40.4497 125.243 40.4263 125.295 40.3866 125.333C40.3469 125.371 40.294 125.392 40.239 125.392C40.184 125.392 40.1311 125.371 40.0914 125.333C40.0517 125.295 40.0283 125.243 40.0261 125.188C40.2048 120.896 41.0406 116.657 42.5043 112.618Z" fill="#F5F5F5"/>
<path d="M34.9974 138.814C32.7193 134.53 31.2205 128.339 31.2205 125.614C31.2315 124.503 31.4867 123.408 31.9679 122.406C32.4491 121.405 33.1447 120.521 34.0052 119.818H45.6767C46.5372 120.521 47.2328 121.405 47.714 122.406C48.1953 123.408 48.4504 124.503 48.4615 125.614C48.4615 128.33 46.9626 134.522 44.6845 138.814H34.9974Z" fill="#F0F0F0"/>
<path d="M104.4 157C149.996 157 186.96 154.842 186.96 152.18C186.96 149.518 149.996 147.36 104.4 147.36C58.803 147.36 21.8396 149.518 21.8396 152.18C21.8396 154.842 58.803 157 104.4 157Z" fill="#F5F5F5"/>
<path d="M124.613 27.5243H114.394C114.061 27.5314 113.74 27.6497 113.482 27.8604C113.224 28.0711 113.045 28.362 112.972 28.6868L112.903 29.0061C112.727 29.7984 112.289 30.5084 111.66 31.0219C111.032 31.5355 110.249 31.8228 109.437 31.8377H99.7289C98.9588 31.8549 98.2132 31.5668 97.6548 31.0364C97.0964 30.5059 96.7705 29.776 96.7482 29.0061V28.6868C96.7404 28.3713 96.6078 28.0718 96.3795 27.8538C96.1513 27.6359 95.8459 27.5174 95.5304 27.5243H85.311C83.6325 27.5541 82.0232 28.198 80.7874 29.3342C79.5516 30.4703 78.775 32.02 78.6045 33.69L70.4034 127.598C70.3168 128.383 70.3984 129.178 70.6429 129.929C70.8874 130.68 71.2892 131.37 71.8213 131.954C72.3535 132.538 73.004 133.002 73.7294 133.314C74.4548 133.627 75.2385 133.782 76.0283 133.768H115.318C116.997 133.737 118.606 133.092 119.842 131.955C121.077 130.818 121.854 129.268 122.024 127.598L130.242 33.69C130.328 32.9048 130.246 32.1103 130.001 31.3593C129.756 30.6084 129.354 29.9183 128.821 29.3349C128.289 28.7516 127.638 28.2884 126.912 27.9762C126.187 27.664 125.403 27.5099 124.613 27.5243Z" fill="#328BD4"/>
<path opacity="0.7" d="M124.613 27.5243H114.394C114.061 27.5314 113.74 27.6497 113.482 27.8604C113.224 28.0711 113.045 28.362 112.972 28.6868L112.903 29.0061C112.727 29.7984 112.289 30.5084 111.66 31.0219C111.032 31.5355 110.249 31.8228 109.437 31.8377H99.7289C98.9588 31.8549 98.2132 31.5668 97.6548 31.0364C97.0964 30.5059 96.7705 29.776 96.7482 29.0061V28.6868C96.7404 28.3713 96.6078 28.0718 96.3795 27.8538C96.1513 27.6359 95.8459 27.5174 95.5304 27.5243H85.311C83.6325 27.5541 82.0232 28.198 80.7874 29.3342C79.5516 30.4703 78.775 32.02 78.6045 33.69L70.4034 127.598C70.3168 128.383 70.3984 129.178 70.6429 129.929C70.8874 130.68 71.2892 131.37 71.8213 131.954C72.3535 132.538 73.004 133.002 73.7294 133.314C74.4548 133.627 75.2385 133.782 76.0283 133.768H115.318C116.997 133.737 118.606 133.092 119.842 131.955C121.077 130.818 121.854 129.268 122.024 127.598L130.242 33.69C130.328 32.9048 130.246 32.1103 130.001 31.3593C129.756 30.6084 129.354 29.9183 128.821 29.3349C128.289 28.7516 127.638 28.2884 126.912 27.9762C126.187 27.664 125.403 27.5099 124.613 27.5243Z" fill="white"/>
<path d="M120.632 70.7183H99.767C99.5915 70.7211 99.4174 70.6866 99.2562 70.6171C99.095 70.5475 98.9505 70.4445 98.8321 70.3149C98.7137 70.1852 98.6243 70.0319 98.5696 69.8651C98.515 69.6983 98.4964 69.5218 98.5151 69.3472L100.086 51.3823C100.124 51.011 100.296 50.6663 100.571 50.4136C100.846 50.1608 101.203 50.0177 101.577 50.0112H122.441C122.617 50.0077 122.791 50.0418 122.953 50.1111C123.114 50.1804 123.259 50.2834 123.378 50.4132C123.496 50.543 123.586 50.6966 123.64 50.8637C123.695 51.0309 123.713 51.2077 123.693 51.3823L122.122 69.3472C122.084 69.7182 121.911 70.0624 121.636 70.3149C121.362 70.5675 121.005 70.7109 120.632 70.7183Z" fill="white"/>
<path d="M113.691 126.891H78.7747C78.3383 126.899 77.9053 126.814 77.5045 126.642C77.1036 126.469 76.7441 126.213 76.45 125.891C76.1558 125.569 75.9338 125.187 75.7986 124.772C75.6635 124.357 75.6184 123.918 75.6662 123.485C75.7608 122.562 76.1899 121.706 76.8724 121.079C77.5549 120.451 78.4437 120.095 79.3708 120.078H114.287C114.723 120.07 115.156 120.155 115.557 120.328C115.958 120.5 116.318 120.756 116.612 121.078C116.906 121.401 117.128 121.782 117.263 122.197C117.398 122.612 117.443 123.051 117.396 123.485C117.302 124.407 116.873 125.264 116.19 125.892C115.508 126.519 114.618 126.875 113.691 126.891Z" fill="white"/>
<path d="M116.471 45.0718H84.4378C84.1923 45.0792 83.948 45.0334 83.7218 44.9375C83.4956 44.8416 83.2929 44.6979 83.1274 44.5163C82.962 44.3347 82.8378 44.1194 82.7634 43.8853C82.689 43.6512 82.6661 43.4037 82.6963 43.1599L82.956 40.1793C83.01 39.6625 83.251 39.1833 83.6337 38.832C84.0165 38.4806 84.5145 38.2813 85.034 38.2716H117.068C117.312 38.2672 117.555 38.3149 117.779 38.4114C118.004 38.508 118.206 38.6512 118.371 38.8316C118.536 39.012 118.661 39.2255 118.737 39.4578C118.813 39.6902 118.839 39.9361 118.813 40.1793L118.549 43.1599C118.496 43.6774 118.256 44.1577 117.873 44.5099C117.49 44.8621 116.992 45.062 116.471 45.0718Z" fill="white"/>
<path d="M122.986 40.0771C122.972 40.2213 122.905 40.3552 122.798 40.4533C122.691 40.5514 122.552 40.6069 122.407 40.6093C122.339 40.6103 122.272 40.5969 122.209 40.5698C122.147 40.5428 122.091 40.5028 122.045 40.4525C121.999 40.4022 121.964 40.3427 121.943 40.278C121.922 40.2133 121.915 40.1448 121.922 40.0771C121.937 39.9332 122.004 39.7999 122.111 39.7024C122.217 39.605 122.356 39.5504 122.501 39.5491C122.569 39.5475 122.636 39.5604 122.699 39.5869C122.761 39.6135 122.817 39.6531 122.863 39.7031C122.909 39.7531 122.944 39.8123 122.965 39.8768C122.987 39.9413 122.994 40.0096 122.986 40.0771Z" fill="white"/>
<path d="M122.846 41.6696C122.832 41.8135 122.766 41.9474 122.66 42.0455C122.554 42.1437 122.416 42.1994 122.271 42.2019C122.203 42.2029 122.136 42.1894 122.073 42.1624C122.011 42.1353 121.954 42.0953 121.909 42.045C121.863 41.9947 121.828 41.9352 121.807 41.8705C121.786 41.8058 121.778 41.7373 121.786 41.6696C121.799 41.5258 121.865 41.3919 121.971 41.2937C122.078 41.1955 122.216 41.1399 122.361 41.1374C122.429 41.1364 122.496 41.1499 122.559 41.1769C122.621 41.204 122.677 41.244 122.723 41.2943C122.769 41.3446 122.804 41.404 122.825 41.4688C122.846 41.5335 122.853 41.6019 122.846 41.6696Z" fill="white"/>
<path d="M122.71 43.2578C122.695 43.4021 122.628 43.536 122.521 43.6341C122.414 43.7322 122.275 43.7877 122.13 43.7901C122.062 43.7911 121.995 43.7776 121.932 43.7506C121.87 43.7235 121.814 43.6835 121.768 43.6332C121.722 43.5829 121.687 43.5234 121.666 43.4587C121.645 43.394 121.638 43.3255 121.645 43.2578C121.66 43.1136 121.727 42.9797 121.833 42.8816C121.94 42.7835 122.079 42.728 122.224 42.7256C122.292 42.7246 122.36 42.7381 122.422 42.7651C122.485 42.7921 122.541 42.8322 122.587 42.8825C122.633 42.9328 122.667 42.9922 122.688 43.057C122.71 43.1217 122.717 43.1901 122.71 43.2578Z" fill="white"/>
<path d="M118.038 100.355H79.0641C78.8884 100.358 78.714 100.324 78.5525 100.255C78.391 100.185 78.2461 100.082 78.1276 99.9526C78.0091 99.8228 77.9197 99.6692 77.8653 99.5021C77.8109 99.335 77.7928 99.1581 77.8123 98.9835L79.6262 78.4808C79.6637 78.1094 79.8361 77.7647 80.1108 77.512C80.3855 77.2593 80.7433 77.1161 81.1165 77.1097H120.078C120.253 77.1068 120.427 77.1413 120.588 77.2109C120.749 77.2805 120.894 77.3836 121.012 77.5133C121.13 77.643 121.219 77.7964 121.273 77.9632C121.327 78.13 121.345 78.3065 121.326 78.4808L119.533 98.9835C119.495 99.3555 119.322 99.7008 119.047 99.9537C118.771 100.206 118.412 100.349 118.038 100.355Z" fill="white"/>
<path d="M89.786 104.638H77.6505C77.6079 104.639 77.5657 104.631 77.5266 104.614C77.4875 104.597 77.4525 104.572 77.4238 104.541C77.3952 104.509 77.3736 104.472 77.3606 104.432C77.3475 104.391 77.3433 104.348 77.3482 104.306C77.3565 104.215 77.3981 104.131 77.4648 104.069C77.5316 104.007 77.6189 103.971 77.7101 103.97H89.8456C89.8886 103.969 89.9312 103.977 89.9707 103.994C90.0101 104.011 90.0454 104.037 90.0741 104.068C90.1028 104.1 90.1243 104.138 90.137 104.179C90.1498 104.22 90.1535 104.264 90.148 104.306C90.1386 104.396 90.0966 104.48 90.03 104.541C89.9633 104.602 89.8765 104.637 89.786 104.638Z" fill="white"/>
<path d="M104.953 104.638H91.9279C91.8851 104.64 91.8423 104.632 91.8027 104.615C91.7631 104.599 91.7275 104.574 91.6984 104.543C91.6693 104.511 91.6474 104.474 91.6341 104.433C91.6208 104.392 91.6164 104.349 91.6214 104.306C91.6297 104.215 91.6713 104.131 91.7381 104.069C91.8048 104.007 91.8921 103.971 91.9833 103.97H105.013C105.056 103.969 105.099 103.977 105.138 103.994C105.177 104.011 105.213 104.037 105.241 104.068C105.27 104.1 105.292 104.138 105.304 104.179C105.317 104.22 105.321 104.264 105.315 104.306C105.306 104.396 105.264 104.48 105.197 104.541C105.131 104.602 105.044 104.637 104.953 104.638Z" fill="white"/>
<path d="M85.5875 107.598H77.3949C77.3518 107.598 77.3091 107.59 77.2695 107.573C77.2299 107.556 77.1943 107.531 77.1653 107.499C77.1363 107.467 77.1144 107.429 77.1011 107.388C77.0878 107.347 77.0835 107.304 77.0884 107.261C77.0976 107.171 77.1394 107.087 77.206 107.025C77.2726 106.963 77.3594 106.927 77.4503 106.925H85.6599C85.7028 106.925 85.7452 106.933 85.7845 106.951C85.8238 106.968 85.859 106.993 85.8879 107.025C85.9168 107.057 85.9388 107.094 85.9523 107.135C85.9658 107.175 85.9706 107.219 85.9665 107.261C85.9569 107.355 85.9126 107.441 85.8425 107.503C85.7723 107.565 85.6813 107.599 85.5875 107.598Z" fill="white"/>
<path d="M101.189 107.598H87.7421C87.699 107.599 87.6562 107.59 87.6166 107.573C87.577 107.556 87.5415 107.531 87.5125 107.499C87.4834 107.467 87.4616 107.429 87.4483 107.388C87.435 107.347 87.4307 107.304 87.4355 107.261C87.4449 107.17 87.4873 107.086 87.5548 107.024C87.6223 106.962 87.7101 106.926 87.8017 106.925H101.245C101.288 106.924 101.33 106.932 101.37 106.949C101.41 106.966 101.445 106.992 101.474 107.023C101.503 107.055 101.525 107.093 101.538 107.134C101.552 107.175 101.556 107.218 101.551 107.261C101.543 107.352 101.501 107.437 101.434 107.499C101.368 107.561 101.28 107.596 101.189 107.598Z" fill="white"/>
<path d="M99.0175 110.553H77.1352C77.0923 110.554 77.0496 110.546 77.01 110.53C76.9704 110.513 76.9348 110.489 76.9057 110.457C76.8766 110.426 76.8546 110.388 76.8413 110.347C76.828 110.306 76.8237 110.263 76.8286 110.221C76.838 110.129 76.8804 110.045 76.9479 109.983C77.0154 109.921 77.1032 109.886 77.1948 109.884H99.0771C99.12 109.884 99.1625 109.893 99.2018 109.91C99.2411 109.927 99.2763 109.953 99.3052 109.984C99.3341 110.016 99.356 110.053 99.3695 110.094C99.3831 110.135 99.3879 110.178 99.3837 110.221C99.3734 110.311 99.3306 110.395 99.2632 110.456C99.1958 110.517 99.1085 110.551 99.0175 110.553Z" fill="white"/>
<path d="M102.62 110.553H101.176C101.134 110.554 101.091 110.546 101.051 110.53C101.012 110.513 100.976 110.489 100.947 110.457C100.918 110.425 100.896 110.388 100.883 110.347C100.869 110.306 100.865 110.263 100.87 110.221C100.878 110.13 100.92 110.045 100.987 109.983C101.053 109.921 101.141 109.886 101.232 109.884H102.68C102.723 109.883 102.765 109.892 102.805 109.909C102.844 109.926 102.879 109.951 102.908 109.983C102.937 110.015 102.958 110.053 102.971 110.094C102.984 110.135 102.987 110.178 102.982 110.221C102.973 110.311 102.931 110.394 102.864 110.455C102.797 110.516 102.71 110.551 102.62 110.553Z" fill="white"/>
<path d="M87.0907 113.512H76.8713C76.8284 113.512 76.7859 113.503 76.7466 113.486C76.7073 113.469 76.6721 113.444 76.6432 113.412C76.6143 113.38 76.5924 113.343 76.5789 113.302C76.5653 113.261 76.5605 113.218 76.5647 113.176C76.574 113.085 76.6165 113 76.6839 112.938C76.7514 112.876 76.8393 112.841 76.9309 112.839H87.1503C87.1934 112.838 87.2362 112.847 87.2758 112.864C87.3154 112.881 87.3509 112.906 87.3799 112.938C87.409 112.97 87.4309 113.007 87.4441 113.048C87.4574 113.089 87.4617 113.133 87.4569 113.176C87.4475 113.267 87.4051 113.351 87.3376 113.413C87.2701 113.475 87.1823 113.51 87.0907 113.512Z" fill="white"/>
<path d="M101.956 113.512H89.2326C89.1897 113.512 89.1472 113.503 89.108 113.486C89.0687 113.469 89.0334 113.444 89.0046 113.412C88.9757 113.38 88.9537 113.343 88.9402 113.302C88.9267 113.261 88.9218 113.218 88.926 113.176C88.9354 113.085 88.9778 113 89.0453 112.938C89.1128 112.876 89.2006 112.841 89.2922 112.839H102.011C102.054 112.838 102.097 112.847 102.137 112.864C102.176 112.881 102.212 112.906 102.241 112.938C102.27 112.97 102.292 113.007 102.305 113.048C102.318 113.089 102.323 113.133 102.318 113.176C102.308 113.266 102.267 113.35 102.2 113.412C102.133 113.474 102.047 113.509 101.956 113.512Z" fill="white"/>
<path d="M89.1985 116.467H76.6158C76.5729 116.468 76.5303 116.46 76.4908 116.443C76.4514 116.426 76.4161 116.4 76.3874 116.368C76.3587 116.337 76.3372 116.299 76.3245 116.258C76.3117 116.217 76.308 116.173 76.3135 116.131C76.3229 116.041 76.3648 115.957 76.4315 115.896C76.4982 115.835 76.585 115.8 76.6755 115.799H89.2539C89.2967 115.797 89.3394 115.805 89.3791 115.821C89.4187 115.838 89.4543 115.863 89.4834 115.894C89.5125 115.926 89.5344 115.963 89.5477 116.004C89.561 116.045 89.5654 116.088 89.5604 116.131C89.5521 116.222 89.5105 116.306 89.4437 116.368C89.377 116.43 89.2896 116.466 89.1985 116.467Z" fill="white"/>
<path d="M101.47 116.467H91.3361C91.2931 116.468 91.2505 116.46 91.211 116.443C91.1716 116.426 91.1363 116.4 91.1076 116.368C91.0789 116.337 91.0574 116.299 91.0447 116.258C91.0319 116.217 91.0282 116.173 91.0337 116.131C91.0431 116.041 91.0851 115.957 91.1517 115.896C91.2184 115.835 91.3052 115.8 91.3957 115.799H101.53C101.573 115.797 101.616 115.805 101.655 115.821C101.695 115.838 101.73 115.863 101.759 115.894C101.789 115.926 101.811 115.963 101.824 116.004C101.837 116.045 101.841 116.088 101.837 116.131C101.827 116.222 101.785 116.307 101.717 116.369C101.65 116.431 101.562 116.466 101.47 116.467Z" fill="white"/>
<path d="M120.138 69.015C120.101 69.0575 120.055 69.0923 120.005 69.1172C119.954 69.1422 119.899 69.1569 119.843 69.1605C119.787 69.164 119.731 69.1564 119.677 69.138C119.624 69.1196 119.575 69.0908 119.533 69.0533L102.105 52.4212C102.025 52.3414 101.981 52.2335 101.981 52.121C101.981 52.0085 102.025 51.9006 102.105 51.8208C102.142 51.7783 102.187 51.7436 102.237 51.7186C102.288 51.6936 102.343 51.6789 102.399 51.6754C102.455 51.6718 102.511 51.6794 102.565 51.6978C102.618 51.7162 102.667 51.745 102.709 51.7825L120.138 68.4146C120.217 68.4944 120.261 68.6023 120.261 68.7148C120.261 68.8273 120.217 68.9352 120.138 69.015Z" fill="#328BD4"/>
<path d="M100.563 69.0107C100.529 68.9655 100.503 68.9137 100.489 68.8586C100.475 68.8034 100.472 68.7459 100.48 68.6895C100.489 68.6331 100.508 68.579 100.538 68.5303C100.567 68.4816 100.607 68.4394 100.653 68.4061L109.544 61.1375C109.628 61.0644 109.738 61.0275 109.85 61.0346C109.961 61.0418 110.065 61.0925 110.14 61.1759C110.174 61.221 110.198 61.2724 110.212 61.3272C110.226 61.3819 110.229 61.4389 110.221 61.4948C110.213 61.5507 110.193 61.6043 110.164 61.6527C110.135 61.701 110.096 61.743 110.05 61.7763L101.16 69.0491C101.075 69.1222 100.965 69.1592 100.854 69.152C100.742 69.1448 100.638 69.0941 100.563 69.0107Z" fill="#328BD4"/>
<path d="M112.052 59.6132C112.018 59.5681 111.993 59.5166 111.979 59.4619C111.965 59.4071 111.962 59.3501 111.97 59.2943C111.979 59.2384 111.998 59.1847 112.027 59.1364C112.057 59.0881 112.095 59.0461 112.141 59.0128L121.049 51.7315C121.133 51.6584 121.243 51.6214 121.355 51.6286C121.466 51.6357 121.571 51.6865 121.645 51.7698C121.679 51.8149 121.704 51.8664 121.718 51.9211C121.731 51.9759 121.734 52.0328 121.726 52.0887C121.718 52.1446 121.698 52.1983 121.669 52.2466C121.64 52.2949 121.601 52.3369 121.556 52.3702L112.648 59.6515C112.563 59.7246 112.453 59.7616 112.342 59.7544C112.23 59.7473 112.126 59.6965 112.052 59.6132Z" fill="#328BD4"/>
<g opacity="0.7">
<path d="M120.138 69.015C120.101 69.0575 120.055 69.0923 120.005 69.1172C119.954 69.1422 119.899 69.1569 119.843 69.1605C119.787 69.164 119.731 69.1564 119.677 69.138C119.624 69.1196 119.575 69.0908 119.533 69.0533L102.105 52.4212C102.025 52.3414 101.981 52.2335 101.981 52.121C101.981 52.0085 102.025 51.9006 102.105 51.8208C102.142 51.7783 102.187 51.7436 102.237 51.7186C102.288 51.6936 102.343 51.6789 102.399 51.6754C102.455 51.6718 102.511 51.6794 102.565 51.6978C102.618 51.7162 102.667 51.745 102.709 51.7825L120.138 68.4146C120.217 68.4944 120.261 68.6023 120.261 68.7148C120.261 68.8273 120.217 68.9352 120.138 69.015Z" fill="white"/>
</g>
<g opacity="0.7">
<path d="M100.563 69.0107C100.529 68.9655 100.503 68.9137 100.489 68.8586C100.475 68.8034 100.472 68.7459 100.48 68.6895C100.489 68.6331 100.508 68.579 100.538 68.5303C100.567 68.4816 100.607 68.4394 100.653 68.4061L109.544 61.1375C109.628 61.0644 109.738 61.0275 109.85 61.0346C109.961 61.0418 110.065 61.0925 110.14 61.1759C110.174 61.221 110.198 61.2724 110.212 61.3272C110.226 61.3819 110.229 61.4389 110.221 61.4948C110.213 61.5507 110.193 61.6043 110.164 61.6527C110.135 61.701 110.096 61.743 110.05 61.7763L101.16 69.0491C101.075 69.1222 100.965 69.1592 100.854 69.152C100.742 69.1448 100.638 69.0941 100.563 69.0107Z" fill="white"/>
</g>
<g opacity="0.7">
<path d="M112.052 59.6132C112.018 59.5681 111.993 59.5166 111.979 59.4619C111.965 59.4071 111.962 59.3501 111.97 59.2943C111.979 59.2384 111.998 59.1847 112.027 59.1364C112.057 59.0881 112.095 59.0461 112.141 59.0128L121.049 51.7315C121.133 51.6584 121.243 51.6214 121.355 51.6286C121.466 51.6357 121.571 51.6865 121.645 51.7698C121.679 51.8149 121.704 51.8664 121.718 51.9211C121.731 51.9759 121.734 52.0328 121.726 52.0887C121.718 52.1446 121.698 52.1983 121.669 52.2466C121.64 52.2949 121.601 52.3369 121.556 52.3702L112.648 59.6515C112.563 59.7246 112.453 59.7616 112.342 59.7544C112.23 59.7473 112.126 59.6965 112.052 59.6132Z" fill="white"/>
</g>
<path d="M70.5736 25.4804H65.0381C64.502 25.4826 63.9887 25.6972 63.6104 26.077C63.2321 26.4569 63.0198 26.9711 63.0198 27.5072V33.0427C63.0198 33.5803 63.2333 34.0958 63.6134 34.4759C63.9935 34.856 64.5091 35.0696 65.0466 35.0696H70.5821C71.1197 35.0696 71.6352 34.856 72.0153 34.4759C72.3954 34.0958 72.609 33.5803 72.609 33.0427V27.5072C72.609 27.2403 72.5563 26.9761 72.4539 26.7296C72.3515 26.4831 72.2014 26.2593 72.0123 26.071C71.8232 25.8827 71.5988 25.7336 71.3519 25.6322C71.105 25.5308 70.8405 25.4792 70.5736 25.4804ZM67.8186 27.4391C68.649 27.4391 69.0961 28.1161 69.0961 28.9465C69.0961 29.7768 68.649 30.4538 67.8186 30.4538C66.9883 30.4538 66.5412 29.781 66.5412 28.9465C66.5412 28.1119 66.9841 27.4391 67.8186 27.4391ZM71.1442 33.0896H64.4888C64.4619 33.0896 64.4353 33.0844 64.4105 33.0742C64.3857 33.0639 64.3631 33.0489 64.344 33.03L64.7699 31.8675C64.9027 31.5009 65.1453 31.1841 65.4645 30.9601C65.7836 30.7362 66.1641 30.6159 66.554 30.6156H69.0705C69.461 30.6156 69.8421 30.7357 70.162 30.9597C70.482 31.1836 70.7253 31.5006 70.8589 31.8675L71.2847 33.03C71.2665 33.0488 71.2447 33.0638 71.2205 33.074C71.1964 33.0843 71.1704 33.0895 71.1442 33.0896Z" fill="#328BD4"/>
<path opacity="0.7" d="M70.5736 25.4804H65.0381C64.502 25.4826 63.9887 25.6972 63.6104 26.077C63.2321 26.4569 63.0198 26.9711 63.0198 27.5072V33.0427C63.0198 33.5803 63.2333 34.0958 63.6134 34.4759C63.9935 34.856 64.5091 35.0696 65.0466 35.0696H70.5821C71.1197 35.0696 71.6352 34.856 72.0153 34.4759C72.3954 34.0958 72.609 33.5803 72.609 33.0427V27.5072C72.609 27.2403 72.5563 26.9761 72.4539 26.7296C72.3515 26.4831 72.2014 26.2593 72.0123 26.071C71.8232 25.8827 71.5988 25.7336 71.3519 25.6322C71.105 25.5308 70.8405 25.4792 70.5736 25.4804ZM67.8186 27.4391C68.649 27.4391 69.0961 28.1161 69.0961 28.9465C69.0961 29.7768 68.649 30.4538 67.8186 30.4538C66.9883 30.4538 66.5412 29.781 66.5412 28.9465C66.5412 28.1119 66.9841 27.4391 67.8186 27.4391ZM71.1442 33.0896H64.4888C64.4619 33.0896 64.4353 33.0844 64.4105 33.0742C64.3857 33.0639 64.3631 33.0489 64.344 33.03L64.7699 31.8675C64.9027 31.5009 65.1453 31.1841 65.4645 30.9601C65.7836 30.7362 66.1641 30.6159 66.554 30.6156H69.0705C69.461 30.6156 69.8421 30.7357 70.162 30.9597C70.482 31.1836 70.7253 31.5006 70.8589 31.8675L71.2847 33.03C71.2665 33.0488 71.2447 33.0638 71.2205 33.074C71.1964 33.0843 71.1704 33.0895 71.1442 33.0896Z" fill="white"/>
<path d="M50.9524 48.1675H46.7624C46.4042 48.1669 46.0493 48.237 45.7182 48.3737C45.3871 48.5104 45.0862 48.7111 44.8326 48.9642C44.5791 49.2173 44.378 49.5179 44.2408 49.8488C44.1036 50.1797 44.033 50.5344 44.033 50.8927V55.0826C44.033 55.8065 44.3205 56.5008 44.8324 57.0126C45.3443 57.5245 46.0385 57.8121 46.7624 57.8121H50.9524C51.3106 57.8121 51.6653 57.7414 51.9962 57.6042C52.3271 57.467 52.6277 57.2659 52.8809 57.0124C53.134 56.7589 53.3346 56.4579 53.4713 56.1268C53.608 55.7957 53.6781 55.4409 53.6775 55.0826V50.8927C53.6781 50.5346 53.608 50.18 53.4712 49.8491C53.3345 49.5182 53.1338 49.2176 52.8806 48.9644C52.6274 48.7113 52.3268 48.5105 51.9959 48.3738C51.665 48.237 51.3104 48.1669 50.9524 48.1675ZM48.8574 55.2742C48.8574 55.2742 47.1541 53.4049 47.1541 52.4511C47.1541 51.9943 47.3356 51.5562 47.6586 51.2332C47.9816 50.9102 48.4197 50.7287 48.8765 50.7287C49.3333 50.7287 49.7714 50.9102 50.0945 51.2332C50.4175 51.5562 50.5989 51.9943 50.5989 52.4511C50.5776 53.4049 48.8574 55.2742 48.8574 55.2742Z" fill="#328BD4"/>
<path d="M48.8572 51.6677C48.701 51.6668 48.5481 51.7124 48.4179 51.7987C48.2877 51.8849 48.1861 52.0079 48.126 52.152C48.0658 52.2961 48.0499 52.4548 48.0801 52.6081C48.1104 52.7613 48.1855 52.902 48.2959 53.0124C48.4063 53.1229 48.5471 53.198 48.7003 53.2282C48.8535 53.2585 49.0122 53.2425 49.1563 53.1824C49.3005 53.1222 49.4235 53.0206 49.5097 52.8904C49.5959 52.7602 49.6415 52.6073 49.6407 52.4512C49.6407 52.2434 49.5581 52.0441 49.4112 51.8972C49.2643 51.7502 49.065 51.6677 48.8572 51.6677Z" fill="#328BD4"/>
<g opacity="0.7">
<path d="M50.9524 48.1675H46.7624C46.4042 48.1669 46.0493 48.237 45.7182 48.3737C45.3871 48.5104 45.0862 48.7111 44.8326 48.9642C44.5791 49.2173 44.378 49.5179 44.2408 49.8488C44.1036 50.1797 44.033 50.5344 44.033 50.8927V55.0826C44.033 55.8065 44.3205 56.5008 44.8324 57.0126C45.3443 57.5245 46.0385 57.8121 46.7624 57.8121H50.9524C51.3106 57.8121 51.6653 57.7414 51.9962 57.6042C52.3271 57.467 52.6277 57.2659 52.8809 57.0124C53.134 56.7589 53.3346 56.4579 53.4713 56.1268C53.608 55.7957 53.6781 55.4409 53.6775 55.0826V50.8927C53.6781 50.5346 53.608 50.18 53.4712 49.8491C53.3345 49.5182 53.1338 49.2176 52.8806 48.9644C52.6274 48.7113 52.3268 48.5105 51.9959 48.3738C51.665 48.237 51.3104 48.1669 50.9524 48.1675ZM48.8574 55.2742C48.8574 55.2742 47.1541 53.4049 47.1541 52.4511C47.1541 51.9943 47.3356 51.5562 47.6586 51.2332C47.9816 50.9102 48.4197 50.7287 48.8765 50.7287C49.3333 50.7287 49.7714 50.9102 50.0945 51.2332C50.4175 51.5562 50.5989 51.9943 50.5989 52.4511C50.5776 53.4049 48.8574 55.2742 48.8574 55.2742Z" fill="white"/>
<path d="M48.8572 51.6677C48.701 51.6668 48.5481 51.7124 48.4179 51.7987C48.2877 51.8849 48.1861 52.0079 48.126 52.152C48.0658 52.2961 48.0499 52.4548 48.0801 52.6081C48.1104 52.7613 48.1855 52.902 48.2959 53.0124C48.4063 53.1229 48.5471 53.198 48.7003 53.2282C48.8535 53.2585 49.0122 53.2425 49.1563 53.1824C49.3005 53.1222 49.4235 53.0206 49.5097 52.8904C49.5959 52.7602 49.6415 52.6073 49.6407 52.4512C49.6407 52.2434 49.5581 52.0441 49.4112 51.8972C49.2643 51.7502 49.065 51.6677 48.8572 51.6677Z" fill="white"/>
</g>
<path d="M142.944 36.2916L145.75 34.4777L142.944 32.6595V36.2916Z" fill="#328BD4"/>
<path d="M146.559 29.5256H141.211C140.607 29.5256 140.027 29.7657 139.6 30.1929C139.173 30.6201 138.933 31.1995 138.933 31.8037V37.1519C138.934 37.7557 139.174 38.3345 139.601 38.7615C140.028 39.1885 140.607 39.4288 141.211 39.43H146.559C147.163 39.43 147.743 39.1899 148.17 38.7627C148.597 38.3355 148.837 37.7561 148.837 37.1519V31.8037C148.838 31.5044 148.779 31.2079 148.665 30.9313C148.551 30.6546 148.383 30.4033 148.171 30.1916C147.96 29.98 147.708 29.8122 147.432 29.6979C147.155 29.5836 146.858 29.5251 146.559 29.5256ZM143.885 38.0418C143.18 38.0418 142.491 37.8327 141.905 37.4409C141.318 37.0491 140.862 36.4922 140.592 35.8407C140.322 35.1892 140.252 34.4724 140.39 33.7809C140.528 33.0895 140.868 32.4544 141.366 31.9561C141.865 31.4579 142.501 31.1188 143.192 30.9817C143.884 30.8447 144.601 30.9159 145.252 31.1863C145.903 31.4567 146.459 31.9142 146.85 32.5008C147.242 33.0875 147.45 33.777 147.449 34.4821C147.448 34.9495 147.356 35.4123 147.176 35.844C146.997 36.2757 146.734 36.6678 146.403 36.9979C146.072 37.3281 145.68 37.5898 145.248 37.7682C144.815 37.9466 144.352 38.0381 143.885 38.0376V38.0418Z" fill="#328BD4"/>
<g opacity="0.7">
<path d="M142.944 36.2918L145.75 34.4778L142.944 32.6596V36.2918Z" fill="white"/>
<path d="M146.559 29.5256H141.211C140.607 29.5256 140.027 29.7657 139.6 30.1929C139.173 30.6201 138.933 31.1995 138.933 31.8037V37.1519C138.934 37.7557 139.174 38.3345 139.601 38.7615C140.028 39.1885 140.607 39.4288 141.211 39.43H146.559C147.163 39.43 147.743 39.1899 148.17 38.7627C148.597 38.3355 148.837 37.7561 148.837 37.1519V31.8037C148.838 31.5044 148.779 31.2079 148.665 30.9313C148.551 30.6546 148.383 30.4033 148.171 30.1916C147.96 29.98 147.708 29.8122 147.432 29.6979C147.155 29.5836 146.858 29.5251 146.559 29.5256ZM143.885 38.0418C143.18 38.0418 142.491 37.8327 141.905 37.4409C141.318 37.0491 140.862 36.4922 140.592 35.8407C140.322 35.1892 140.252 34.4724 140.39 33.7809C140.528 33.0895 140.868 32.4544 141.366 31.9561C141.865 31.4579 142.501 31.1188 143.192 30.9817C143.884 30.8447 144.601 30.9159 145.252 31.1863C145.903 31.4567 146.459 31.9142 146.85 32.5008C147.242 33.0875 147.45 33.777 147.449 34.4821C147.448 34.9495 147.356 35.4123 147.176 35.844C146.997 36.2757 146.734 36.6678 146.403 36.9979C146.072 37.3281 145.68 37.5898 145.248 37.7682C144.815 37.9466 144.352 38.0381 143.885 38.0376V38.0418Z" fill="white"/>
</g>
<path d="M151.809 50.0368C151.809 49.9261 151.809 49.8154 151.809 49.709L152.452 49.3513C152.406 49.0468 152.326 48.7484 152.214 48.4613H151.482C151.388 48.2614 151.277 48.0705 151.149 47.8908L151.528 47.2648C151.334 47.0245 151.116 46.8048 150.877 46.6091L150.247 46.988C150.068 46.8625 149.878 46.7528 149.68 46.6602V45.9235C149.392 45.8147 149.094 45.7348 148.79 45.6851L148.433 46.328C148.326 46.328 148.216 46.328 148.105 46.328C147.994 46.328 147.888 46.328 147.777 46.328L147.419 45.6851C147.116 45.7359 146.818 45.8157 146.529 45.9235V46.6602C146.331 46.7519 146.141 46.8616 145.963 46.988L145.333 46.6091C145.092 46.8036 144.872 47.0234 144.677 47.2648L145.056 47.8908C144.931 48.0715 144.822 48.2624 144.728 48.4613H143.996C143.885 48.7489 143.803 49.0471 143.753 49.3513L144.396 49.709C144.396 49.8154 144.396 49.9261 144.396 50.0368C144.396 50.1475 144.396 50.2582 144.396 50.3647L143.753 50.7224C143.803 51.0267 143.884 51.3249 143.996 51.6123H144.728C144.822 51.8113 144.931 52.0021 145.056 52.1829L144.677 52.8131C144.873 53.0521 145.093 53.2704 145.333 53.4646L145.963 53.0856C146.14 53.2136 146.33 53.3234 146.529 53.4135V54.1501C146.817 54.2599 147.115 54.3398 147.419 54.3886L147.777 53.7456C147.888 53.7456 147.994 53.7456 148.105 53.7456C148.216 53.7456 148.326 53.7456 148.433 53.7456L148.79 54.3886C149.095 54.3409 149.393 54.261 149.68 54.1501V53.4135C149.879 53.3225 150.069 53.2127 150.247 53.0856L150.877 53.4646C151.115 53.2692 151.333 53.051 151.528 52.8131L151.149 52.1829C151.277 52.0032 151.388 51.8122 151.482 51.6123H152.214C152.326 51.3254 152.406 51.0269 152.452 50.7224L151.809 50.3647C151.801 50.2455 151.809 50.1475 151.809 50.0368ZM148.096 52.5576C147.598 52.5576 147.11 52.4098 146.696 52.1328C146.281 51.8558 145.958 51.4621 145.768 51.0015C145.577 50.5409 145.527 50.034 145.624 49.545C145.721 49.0561 145.961 48.6069 146.314 48.2544C146.666 47.9018 147.116 47.6617 147.605 47.5645C148.094 47.4672 148.6 47.5171 149.061 47.7079C149.522 47.8987 149.915 48.2218 150.192 48.6364C150.469 49.0509 150.617 49.5383 150.617 50.0368C150.617 50.7054 150.352 51.3466 149.879 51.8193C149.406 52.292 148.765 52.5576 148.096 52.5576Z" fill="#328BD4"/>
<path opacity="0.7" d="M151.809 50.0368C151.809 49.9261 151.809 49.8154 151.809 49.709L152.452 49.3513C152.406 49.0468 152.326 48.7484 152.214 48.4613H151.482C151.388 48.2614 151.277 48.0705 151.149 47.8908L151.528 47.2648C151.334 47.0245 151.116 46.8048 150.877 46.6091L150.247 46.988C150.068 46.8625 149.878 46.7528 149.68 46.6602V45.9235C149.392 45.8147 149.094 45.7348 148.79 45.6851L148.433 46.328C148.326 46.328 148.216 46.328 148.105 46.328C147.994 46.328 147.888 46.328 147.777 46.328L147.419 45.6851C147.116 45.7359 146.818 45.8157 146.529 45.9235V46.6602C146.331 46.7519 146.141 46.8616 145.963 46.988L145.333 46.6091C145.092 46.8036 144.872 47.0234 144.677 47.2648L145.056 47.8908C144.931 48.0715 144.822 48.2624 144.728 48.4613H143.996C143.885 48.7489 143.803 49.0471 143.753 49.3513L144.396 49.709C144.396 49.8154 144.396 49.9261 144.396 50.0368C144.396 50.1475 144.396 50.2582 144.396 50.3647L143.753 50.7224C143.803 51.0267 143.884 51.3249 143.996 51.6123H144.728C144.822 51.8113 144.931 52.0021 145.056 52.1829L144.677 52.8131C144.873 53.0521 145.093 53.2704 145.333 53.4646L145.963 53.0856C146.14 53.2136 146.33 53.3234 146.529 53.4135V54.1501C146.817 54.2599 147.115 54.3398 147.419 54.3886L147.777 53.7456C147.888 53.7456 147.994 53.7456 148.105 53.7456C148.216 53.7456 148.326 53.7456 148.433 53.7456L148.79 54.3886C149.095 54.3409 149.393 54.261 149.68 54.1501V53.4135C149.879 53.3225 150.069 53.2127 150.247 53.0856L150.877 53.4646C151.115 53.2692 151.333 53.051 151.528 52.8131L151.149 52.1829C151.277 52.0032 151.388 51.8122 151.482 51.6123H152.214C152.326 51.3254 152.406 51.0269 152.452 50.7224L151.809 50.3647C151.801 50.2455 151.809 50.1475 151.809 50.0368ZM148.096 52.5576C147.598 52.5576 147.11 52.4098 146.696 52.1328C146.281 51.8558 145.958 51.4621 145.768 51.0015C145.577 50.5409 145.527 50.034 145.624 49.545C145.721 49.0561 145.961 48.6069 146.314 48.2544C146.666 47.9018 147.116 47.6617 147.605 47.5645C148.094 47.4672 148.6 47.5171 149.061 47.7079C149.522 47.8987 149.915 48.2218 150.192 48.6364C150.469 49.0509 150.617 49.5383 150.617 50.0368C150.617 50.7054 150.352 51.3466 149.879 51.8193C149.406 52.292 148.765 52.5576 148.096 52.5576Z" fill="white"/>
<path d="M142.105 62.6961C142.105 62.5301 142.105 62.3682 142.084 62.2064L143.046 61.6742C142.974 61.2173 142.854 60.7692 142.689 60.3371L141.59 60.3584C141.451 60.0603 141.286 59.7753 141.096 59.5068L141.662 58.5658C141.372 58.2076 141.046 57.8807 140.687 57.5907L139.746 58.1527C139.477 57.9658 139.192 57.802 138.895 57.6631V56.5645C138.464 56.3985 138.018 56.2787 137.562 56.2068L137.03 57.1691C136.868 57.1691 136.706 57.1691 136.54 57.1691C136.374 57.1691 136.212 57.1691 136.05 57.1691L135.531 56.2068C135.075 56.2797 134.629 56.3996 134.198 56.5645V57.6631C133.901 57.8018 133.616 57.9656 133.346 58.1527L132.427 57.5907C132.067 57.8807 131.739 58.2075 131.447 58.5658L132.014 59.5068C131.825 59.7754 131.661 60.0604 131.524 60.3584L130.425 60.3371C130.258 60.7685 130.138 61.2169 130.068 61.6742L131.03 62.2064C130.996 62.532 130.996 62.8602 131.03 63.1858L130.068 63.7223C130.139 64.1782 130.258 64.625 130.425 65.0551L131.524 65.0338C131.66 65.3323 131.824 65.6174 132.014 65.8854L131.447 66.8265C131.739 67.1847 132.067 67.5116 132.427 67.8016L133.368 67.2395C133.636 67.4282 133.921 67.5921 134.219 67.7292V68.8278C134.649 68.9946 135.096 69.1145 135.552 69.1854L136.089 68.2231C136.414 68.2572 136.742 68.2572 137.068 68.2231L137.6 69.1854C138.056 69.1156 138.503 68.9956 138.933 68.8278V67.7292C139.231 67.5919 139.516 67.428 139.785 67.2395L140.726 67.8016C141.084 67.5115 141.411 67.1847 141.701 66.8265L141.134 65.8854C141.325 65.6175 141.491 65.3324 141.628 65.0338L142.727 65.0551C142.892 64.6244 143.012 64.1777 143.085 63.7223L142.122 63.1858C142.097 63.0197 142.105 62.8622 142.105 62.6961ZM136.57 64.8848C136.137 64.8848 135.714 64.7564 135.354 64.5159C134.994 64.2754 134.713 63.9336 134.548 63.5337C134.382 63.1337 134.339 62.6937 134.423 62.2691C134.508 61.8446 134.716 61.4546 135.022 61.1485C135.328 60.8424 135.718 60.634 136.143 60.5495C136.567 60.4651 137.007 60.5084 137.407 60.6741C137.807 60.8397 138.149 61.1202 138.39 61.4802C138.63 61.8401 138.758 62.2632 138.758 62.6961C138.758 62.9846 138.701 63.2703 138.591 63.5366C138.48 63.803 138.317 64.0449 138.113 64.2483C137.908 64.4517 137.665 64.6126 137.398 64.7219C137.131 64.8311 136.845 64.8865 136.557 64.8848H136.57Z" fill="#328BD4"/>
<path opacity="0.7" d="M142.105 62.6961C142.105 62.5301 142.105 62.3682 142.084 62.2064L143.046 61.6742C142.974 61.2173 142.854 60.7692 142.689 60.3371L141.59 60.3584C141.451 60.0603 141.286 59.7753 141.096 59.5068L141.662 58.5658C141.372 58.2076 141.046 57.8807 140.687 57.5907L139.746 58.1527C139.477 57.9658 139.192 57.802 138.895 57.6631V56.5645C138.464 56.3985 138.018 56.2787 137.562 56.2068L137.03 57.1691C136.868 57.1691 136.706 57.1691 136.54 57.1691C136.374 57.1691 136.212 57.1691 136.05 57.1691L135.531 56.2068C135.075 56.2797 134.629 56.3996 134.198 56.5645V57.6631C133.901 57.8018 133.616 57.9656 133.346 58.1527L132.427 57.5907C132.067 57.8807 131.739 58.2075 131.447 58.5658L132.014 59.5068C131.825 59.7754 131.661 60.0604 131.524 60.3584L130.425 60.3371C130.258 60.7685 130.138 61.2169 130.068 61.6742L131.03 62.2064C130.996 62.532 130.996 62.8602 131.03 63.1858L130.068 63.7223C130.139 64.1782 130.258 64.625 130.425 65.0551L131.524 65.0338C131.66 65.3323 131.824 65.6174 132.014 65.8854L131.447 66.8265C131.739 67.1847 132.067 67.5116 132.427 67.8016L133.368 67.2395C133.636 67.4282 133.921 67.5921 134.219 67.7292V68.8278C134.649 68.9946 135.096 69.1145 135.552 69.1854L136.089 68.2231C136.414 68.2572 136.742 68.2572 137.068 68.2231L137.6 69.1854C138.056 69.1156 138.503 68.9956 138.933 68.8278V67.7292C139.231 67.5919 139.516 67.428 139.785 67.2395L140.726 67.8016C141.084 67.5115 141.411 67.1847 141.701 66.8265L141.134 65.8854C141.325 65.6175 141.491 65.3324 141.628 65.0338L142.727 65.0551C142.892 64.6244 143.012 64.1777 143.085 63.7223L142.122 63.1858C142.097 63.0197 142.105 62.8622 142.105 62.6961ZM136.57 64.8848C136.137 64.8848 135.714 64.7564 135.354 64.5159C134.994 64.2754 134.713 63.9336 134.548 63.5337C134.382 63.1337 134.339 62.6937 134.423 62.2691C134.508 61.8446 134.716 61.4546 135.022 61.1485C135.328 60.8424 135.718 60.634 136.143 60.5495C136.567 60.4651 137.007 60.5084 137.407 60.6741C137.807 60.8397 138.149 61.1202 138.39 61.4802C138.63 61.8401 138.758 62.2632 138.758 62.6961C138.758 62.9846 138.701 63.2703 138.591 63.5366C138.48 63.803 138.317 64.0449 138.113 64.2483C137.908 64.4517 137.665 64.6126 137.398 64.7219C137.131 64.8311 136.845 64.8865 136.557 64.8848H136.57Z" fill="white"/>
<path d="M126.465 38.0078V40.239L124.336 41.3589C124.253 41.4033 124.184 41.4693 124.136 41.5499C124.088 41.6305 124.062 41.7227 124.062 41.8166C124.062 41.9105 124.088 42.0027 124.136 42.0833C124.184 42.1639 124.253 42.2299 124.336 42.2744L126.465 43.3942V45.6255C126.465 45.8638 126.56 46.0923 126.728 46.2608C126.897 46.4293 127.125 46.5239 127.364 46.5239H134.981C135.22 46.5239 135.449 46.4294 135.618 46.261C135.787 46.0927 135.883 45.8642 135.884 45.6255V38.0078C135.884 37.7683 135.789 37.5387 135.62 37.3694C135.45 37.2002 135.221 37.105 134.981 37.105H127.351C127.114 37.1084 126.888 37.2051 126.722 37.3742C126.556 37.5432 126.464 37.7709 126.465 38.0078Z" fill="#328BD4"/>
<g opacity="0.9">
<path d="M129.071 40.3327H133.402C133.543 40.3327 133.678 40.2766 133.778 40.1768C133.878 40.077 133.934 39.9416 133.934 39.8004C133.934 39.6593 133.878 39.5239 133.778 39.4241C133.678 39.3243 133.543 39.2682 133.402 39.2682H129.071C128.93 39.2682 128.795 39.3243 128.695 39.4241C128.595 39.5239 128.539 39.6593 128.539 39.8004C128.539 39.9416 128.595 40.077 128.695 40.1768C128.795 40.2766 128.93 40.3327 129.071 40.3327Z" fill="white"/>
<path d="M133.402 41.3035H129.071C128.93 41.3035 128.795 41.3596 128.695 41.4594C128.595 41.5592 128.539 41.6946 128.539 41.8358C128.539 41.977 128.595 42.1123 128.695 42.2122C128.795 42.312 128.93 42.368 129.071 42.368H133.402C133.543 42.368 133.678 42.312 133.778 42.2122C133.878 42.1123 133.934 41.977 133.934 41.8358C133.934 41.6946 133.878 41.5592 133.778 41.4594C133.678 41.3596 133.543 41.3035 133.402 41.3035Z" fill="white"/>
<path d="M133.402 43.3006H129.071C128.93 43.3006 128.795 43.3567 128.695 43.4565C128.595 43.5563 128.539 43.6917 128.539 43.8329C128.539 43.974 128.595 44.1094 128.695 44.2092C128.795 44.309 128.93 44.3651 129.071 44.3651H133.402C133.543 44.3651 133.678 44.309 133.778 44.2092C133.878 44.1094 133.934 43.974 133.934 43.8329C133.934 43.6917 133.878 43.5563 133.778 43.4565C133.678 43.3567 133.543 43.3006 133.402 43.3006Z" fill="white"/>
</g>
<path d="M83.416 34.4906H85.2342L86.171 36.2662C86.2327 36.3819 86.3248 36.4787 86.4373 36.5462C86.5498 36.6137 86.6785 36.6494 86.8097 36.6494C86.9409 36.6494 87.0696 36.6137 87.1821 36.5462C87.2946 36.4787 87.3867 36.3819 87.4484 36.2662L88.3852 34.4906H90.2034C90.376 34.4906 90.5469 34.4565 90.7063 34.3903C90.8656 34.3241 91.0104 34.2272 91.1323 34.1049C91.2541 33.9827 91.3506 33.8376 91.4163 33.678C91.4819 33.5184 91.5154 33.3474 91.5149 33.1748V26.4002C91.5149 26.0524 91.3767 25.7188 91.1307 25.4728C90.8848 25.2269 90.5512 25.0887 90.2034 25.0887H83.416C83.2436 25.0881 83.0728 25.1217 82.9134 25.1874C82.7541 25.2531 82.6093 25.3497 82.4874 25.4716C82.3655 25.5935 82.2689 25.7383 82.2032 25.8976C82.1375 26.057 82.1039 26.2278 82.1045 26.4002V33.2131C82.1134 33.555 82.2555 33.8799 82.5005 34.1185C82.7455 34.3572 83.074 34.4907 83.416 34.4906Z" fill="#328BD4"/>
<path opacity="0.9" d="M86.814 27.1198L84.719 28.3461V31.9315H86.2774V29.5256H87.3547V31.9315H88.9132V28.3461L86.814 27.1198Z" fill="white"/>
<path d="M103.812 131.911H102.194L101.151 129.927C101.099 129.831 101.022 129.751 100.929 129.695C100.835 129.639 100.728 129.609 100.619 129.609C100.51 129.609 100.402 129.639 100.309 129.695C100.215 129.751 100.138 129.831 100.086 129.927L99.0432 131.911H97.3825C96.9861 131.911 96.606 132.069 96.3257 132.349C96.0454 132.629 95.8879 133.01 95.8879 133.406V139.836C95.8879 140.232 96.0454 140.612 96.3257 140.893C96.606 141.173 96.9861 141.33 97.3825 141.33H103.812C104.209 141.33 104.589 141.173 104.869 140.893C105.149 140.612 105.307 140.232 105.307 139.836V133.406C105.307 133.01 105.149 132.629 104.869 132.349C104.589 132.069 104.209 131.911 103.812 131.911Z" fill="#328BD4"/>
<path opacity="0.9" d="M101.509 134.368C101.196 134.056 100.802 133.839 100.37 133.743C99.9394 133.646 99.4898 133.675 99.0744 133.825C98.6589 133.975 98.2948 134.241 98.0247 134.59C97.7546 134.94 97.5896 135.359 97.5491 135.799C97.5086 136.238 97.5942 136.681 97.796 137.074C97.9977 137.467 98.3072 137.794 98.6882 138.017C99.0693 138.241 99.5061 138.351 99.9475 138.335C100.389 138.319 100.817 138.178 101.181 137.928C101.199 138.034 101.247 138.132 101.321 138.209L102.769 139.653C102.867 139.75 102.999 139.805 103.137 139.805C103.275 139.805 103.408 139.75 103.506 139.653C103.603 139.555 103.658 139.422 103.658 139.284C103.658 139.146 103.603 139.014 103.506 138.916L102.062 137.472C101.985 137.396 101.885 137.345 101.777 137.328C102.083 136.88 102.224 136.34 102.175 135.8C102.126 135.26 101.89 134.754 101.509 134.368ZM101.015 137.166C100.787 137.394 100.496 137.549 100.18 137.612C99.8633 137.674 99.5355 137.642 99.2377 137.518C98.9398 137.395 98.6852 137.186 98.5061 136.918C98.327 136.65 98.2314 136.334 98.2314 136.012C98.2314 135.689 98.327 135.374 98.5061 135.106C98.6852 134.838 98.9398 134.629 99.2377 134.505C99.5355 134.382 99.8633 134.349 100.18 134.412C100.496 134.475 100.787 134.63 101.015 134.858C101.166 135.009 101.287 135.189 101.369 135.387C101.451 135.585 101.493 135.798 101.493 136.012C101.493 136.226 101.451 136.438 101.369 136.636C101.287 136.835 101.166 137.014 101.015 137.166Z" fill="white"/>
<path d="M172.576 89.0919C172.576 89.0919 169.106 97.6933 165.708 98.6215C162.31 99.5498 157.192 98.7961 157.192 98.7961L155.608 99.2219L154.054 98.992H153.998L152.248 98.9494C152.185 98.9547 152.122 98.9418 152.066 98.9122C152.01 98.8827 151.963 98.8378 151.932 98.7827C151.901 98.7277 151.886 98.6648 151.889 98.6015C151.892 98.5383 151.913 98.4773 151.95 98.4257L152.576 97.5741C152.629 97.5041 152.701 97.4521 152.785 97.425L154.454 96.8885C154.52 96.8738 154.588 96.8738 154.654 96.8885L157.209 97.293C157.209 97.293 164.299 96.1306 165.022 95.4748C165.746 94.8191 167.88 87.9423 167.88 87.9423L172.576 89.0919Z" fill="#FFBF9D"/>
<path opacity="0.1" d="M157.366 97.2377L157.2 97.2633L154.645 96.8587C154.579 96.844 154.511 96.844 154.445 96.8587L152.776 97.3953C152.693 97.4223 152.62 97.4743 152.567 97.5443L151.941 98.3959C151.905 98.4475 151.883 98.5085 151.88 98.5718C151.877 98.635 151.892 98.6979 151.923 98.7529C151.954 98.808 152.001 98.8529 152.057 98.8825C152.113 98.912 152.176 98.9249 152.239 98.9196L153.989 98.9622H154.045L155.088 99.1155C155.978 98.6672 156.756 98.0256 157.366 97.2377Z" fill="black"/>
<path d="M174.671 80.5715C172.15 79.7455 168.603 81.6403 167.245 89.5774L172.478 91.1231C172.478 91.1231 178.273 81.7553 174.671 80.5715Z" fill="#328BD4"/>
<path d="M160.006 70.1988C160.006 70.4628 160.147 70.6715 160.317 70.6715C160.488 70.6715 160.637 70.4458 160.624 70.1903C160.611 69.9348 160.483 69.7219 160.313 69.7262C160.143 69.7305 160.006 69.9391 160.006 70.1988Z" fill="#263238"/>
<path d="M161.037 70.4586L159.798 72.5067C159.798 72.5067 160.223 72.9921 161.156 72.6344L161.037 70.4586Z" fill="#D4827D"/>
<path d="M161.271 68.5552C161.256 68.5724 161.236 68.5854 161.215 68.5929C161.193 68.6003 161.17 68.602 161.147 68.5978C160.98 68.5691 160.808 68.5807 160.646 68.6318C160.483 68.6829 160.336 68.772 160.215 68.8916C160.189 68.9159 160.155 68.9294 160.119 68.9294C160.084 68.9294 160.049 68.9159 160.023 68.8916C159.999 68.8649 159.985 68.83 159.985 68.7937C159.985 68.7574 159.999 68.7225 160.023 68.6958C160.174 68.5419 160.359 68.4269 160.564 68.3609C160.769 68.2949 160.987 68.2797 161.198 68.3168C161.216 68.3189 161.234 68.3245 161.25 68.3334C161.265 68.3423 161.279 68.3542 161.29 68.3685C161.301 68.3827 161.309 68.3991 161.314 68.4165C161.319 68.434 161.32 68.4522 161.318 68.4701C161.311 68.5026 161.295 68.5323 161.271 68.5552Z" fill="#263238"/>
<path d="M170.026 68.3423C170.217 71.8042 170.375 73.2689 168.846 75.2362C166.406 77.3439 162.25 77.6803 161.024 74.3462C159.921 71.3656 159.793 66.2005 162.995 64.4164C163.539 64.1137 164.136 63.9211 164.754 63.8495C165.371 63.778 165.997 63.8289 166.595 63.9993C167.193 64.1698 167.751 64.4564 168.239 64.8429C168.726 65.2294 169.132 65.7081 169.434 66.2516C169.788 66.8942 169.99 67.6094 170.026 68.3423Z" fill="#FFBF9D"/>
<path d="M165.201 75.9174L166.078 81.0484L170.353 80.0606L168.859 74.8231L165.201 75.9174Z" fill="#FFBF9D"/>
<path d="M162.123 68.5978C162.34 66.3496 161.565 68.947 160.526 65.9791C159.487 63.0112 164.396 60.6011 165.18 61.1547C165.963 61.7082 165.516 62.5556 168.114 63.0368C168.822 63.1493 169.466 63.5162 169.923 64.0687C170.381 64.6212 170.622 65.3216 170.6 66.0387C170.6 66.0387 172.095 66.7285 171.563 69.9391C171.172 71.9963 170.296 73.9305 169.008 75.5811C169.008 75.5811 168.024 74.5677 166.453 75.5002C165.84 75.1 165.321 74.5711 164.933 73.9503C164.235 72.9028 164.017 71.9064 163.059 71.8212C161.058 71.6381 162.05 69.3387 162.123 68.5978Z" fill="#263238"/>
<path d="M170.323 66.4262C170.323 66.4262 172.453 65.1233 171.507 63.7564C170.562 62.3896 171.018 65.2638 170.323 66.4262Z" fill="#263238"/>
<path d="M162.731 69.9051C162.259 70.433 162.016 71.1267 162.054 71.834C162.114 72.7707 163.034 72.9368 163.758 72.4258C164.481 71.9149 165.167 70.9185 164.75 70.0967C164.657 69.9174 164.521 69.7642 164.354 69.6512C164.187 69.5381 163.994 69.4689 163.793 69.4499C163.592 69.4308 163.389 69.4625 163.204 69.542C163.019 69.6215 162.856 69.7464 162.731 69.9051Z" fill="#FFC3BD"/>
<path opacity="0.1" d="M165.282 76.4029L165.631 78.4383C165.6 77.9343 165.67 77.4292 165.835 76.952C166 76.4748 166.258 76.035 166.593 75.6578C166.333 75.6745 166.079 75.7503 165.852 75.8794C165.625 76.0085 165.43 76.1875 165.282 76.4029Z" fill="black"/>
<path d="M135.224 89.637H134.002V96.846H135.224V89.637Z" fill="#328BD4"/>
<path opacity="0.7" d="M135.224 89.637H134.002V96.846H135.224V89.637Z" fill="white"/>
<path d="M126.827 75.3214H123.783C123.235 75.3214 122.71 75.5389 122.322 75.9262C121.935 76.3135 121.718 76.8388 121.718 77.3865V91.4936C121.718 91.7648 121.771 92.0333 121.875 92.2839C121.979 92.5344 122.131 92.7621 122.322 92.9539C122.514 93.1456 122.742 93.2978 122.992 93.4015C123.243 93.5053 123.512 93.5587 123.783 93.5587H126.827V75.3214Z" fill="#328BD4"/>
<path d="M145.448 75.3214H124.847C123.707 75.3214 122.782 76.246 122.782 77.3865V91.4893C122.782 92.6299 123.707 93.5545 124.847 93.5545H145.448C146.588 93.5545 147.513 92.6299 147.513 91.4893V77.3865C147.513 76.246 146.588 75.3214 145.448 75.3214Z" fill="#328BD4"/>
<path opacity="0.5" d="M145.448 75.3214H124.847C123.707 75.3214 122.782 76.246 122.782 77.3865V91.4893C122.782 92.6299 123.707 93.5545 124.847 93.5545H145.448C146.588 93.5545 147.513 92.6299 147.513 91.4893V77.3865C147.513 76.246 146.588 75.3214 145.448 75.3214Z" fill="white"/>
<path d="M145.448 76.1729H124.847C124.177 76.1729 123.634 76.7162 123.634 77.3865V91.4893C123.634 92.1595 124.177 92.7028 124.847 92.7028H145.448C146.118 92.7028 146.661 92.1595 146.661 91.4893V77.3865C146.661 76.7162 146.118 76.1729 145.448 76.1729Z" fill="#263238"/>
<path d="M130.166 99.8692C130.201 98.7134 130.686 97.617 131.516 96.8121C132.346 96.0072 133.457 95.5571 134.613 95.5571C135.769 95.5571 136.88 96.0072 137.71 96.8121C138.541 97.617 139.025 98.7134 139.061 99.8692H130.166Z" fill="#328BD4"/>
<path d="M140.662 98.3533H131.767V99.7968H149.557V99.205L140.662 98.3533Z" fill="#328BD4"/>
<path opacity="0.8" d="M140.662 98.3533H131.767V99.7968H149.557V99.205L140.662 98.3533Z" fill="white"/>
<path d="M140.662 99.7968H131.767V98.3533L140.662 99.205V99.7968Z" fill="#328BD4"/>
<path opacity="0.6" d="M140.662 99.7968H131.767V98.3533L140.662 99.205V99.7968Z" fill="white"/>
<path d="M160.274 149.493H141.926C141.56 149.494 141.198 149.422 140.859 149.282C140.521 149.143 140.213 148.937 139.954 148.679C139.695 148.42 139.49 148.113 139.35 147.775C139.209 147.437 139.137 147.074 139.137 146.708V104.519C139.137 104.153 139.209 103.791 139.35 103.452C139.49 103.114 139.695 102.807 139.954 102.548C140.213 102.29 140.521 102.085 140.859 101.945C141.198 101.805 141.56 101.734 141.926 101.734H160.274C160.472 101.734 160.662 101.813 160.801 101.953C160.941 102.092 161.02 102.282 161.02 102.479C161.02 102.677 160.941 102.867 160.801 103.006C160.662 103.146 160.472 103.225 160.274 103.225H141.926C141.757 103.222 141.588 103.253 141.431 103.316C141.273 103.379 141.13 103.472 141.009 103.591C140.888 103.71 140.792 103.852 140.727 104.008C140.661 104.165 140.628 104.332 140.628 104.502V146.691C140.628 146.861 140.661 147.029 140.727 147.185C140.792 147.341 140.888 147.483 141.009 147.602C141.13 147.721 141.273 147.815 141.431 147.878C141.588 147.94 141.757 147.971 141.926 147.969H160.274C160.472 147.969 160.662 148.047 160.801 148.187C160.941 148.327 161.02 148.516 161.02 148.714C161.024 148.814 161.008 148.915 160.973 149.009C160.938 149.104 160.883 149.19 160.814 149.263C160.744 149.336 160.66 149.394 160.568 149.433C160.475 149.473 160.375 149.493 160.274 149.493Z" fill="#263238"/>
<g opacity="0.5">
<path d="M160.274 149.493H141.926C141.56 149.494 141.198 149.422 140.859 149.282C140.521 149.143 140.213 148.937 139.954 148.679C139.695 148.42 139.49 148.113 139.35 147.775C139.209 147.437 139.137 147.074 139.137 146.708V104.519C139.137 104.153 139.209 103.791 139.35 103.452C139.49 103.114 139.695 102.807 139.954 102.548C140.213 102.29 140.521 102.085 140.859 101.945C141.198 101.805 141.56 101.734 141.926 101.734H160.274C160.472 101.734 160.662 101.813 160.801 101.953C160.941 102.092 161.02 102.282 161.02 102.479C161.02 102.677 160.941 102.867 160.801 103.006C160.662 103.146 160.472 103.225 160.274 103.225H141.926C141.757 103.222 141.588 103.253 141.431 103.316C141.273 103.379 141.13 103.472 141.009 103.591C140.888 103.71 140.792 103.852 140.727 104.008C140.661 104.165 140.628 104.332 140.628 104.502V146.691C140.628 146.861 140.661 147.029 140.727 147.185C140.792 147.341 140.888 147.483 141.009 147.602C141.13 147.721 141.273 147.815 141.431 147.878C141.588 147.94 141.757 147.971 141.926 147.969H160.274C160.472 147.969 160.662 148.047 160.801 148.187C160.941 148.327 161.02 148.516 161.02 148.714C161.024 148.814 161.008 148.915 160.973 149.009C160.938 149.104 160.883 149.19 160.814 149.263C160.744 149.336 160.66 149.394 160.568 149.433C160.475 149.473 160.375 149.493 160.274 149.493Z" fill="white"/>
</g>
<path d="M141.854 99.7968H115.799V101.981H141.854V99.7968Z" fill="#328BD4"/>
<path opacity="0.2" d="M141.854 99.7968H115.799V101.981H141.854V99.7968Z" fill="white"/>
<path d="M162.885 99.7968H140.662V101.981H162.885V99.7968Z" fill="#328BD4"/>
<path opacity="0.5" d="M162.885 99.7968H140.662V101.981H162.885V99.7968Z" fill="white"/>
<path d="M155.092 134.015L156.323 146.457H153.376L150.426 134.338L155.092 134.015Z" fill="#FFBF9D"/>
<path d="M153.1 145.627L156.86 145.691C156.928 145.692 156.994 145.717 157.047 145.761C157.1 145.805 157.136 145.866 157.149 145.933L157.779 149.003C157.806 149.134 157.78 149.269 157.708 149.381C157.635 149.492 157.522 149.571 157.392 149.599H157.286C155.927 149.553 154.731 149.459 153.027 149.429C151.039 149.395 151.537 149.642 149.195 149.638C147.786 149.638 147.556 148.024 148.152 147.956C150.898 147.658 151.196 146.836 152.27 145.874C152.507 145.692 152.802 145.604 153.1 145.627Z" fill="#263238"/>
<path opacity="0.1" d="M156.004 143.208L155.092 134.015L150.426 134.338L152.584 143.208H156.004Z" fill="black"/>
<path d="M175.267 105.328L163.183 105.754C163.183 105.754 146.904 111.447 146.478 115.82C146.01 120.325 151.477 141.024 151.477 141.024H156.336C156.336 141.024 154.994 125.835 154.483 121.185C153.972 116.535 171.426 118.073 174.458 114.108C177.23 110.472 175.267 105.328 175.267 105.328Z" fill="#263238"/>
<path opacity="0.2" d="M175.267 105.328L163.183 105.754C163.183 105.754 146.904 111.447 146.478 115.82C146.01 120.325 151.477 141.024 151.477 141.024H156.336C156.336 141.024 154.994 125.835 154.483 121.185C153.972 116.535 171.426 118.073 174.458 114.108C177.23 110.472 175.267 105.328 175.267 105.328Z" fill="black"/>
<path d="M157.145 140.342L157.251 142.058H151.248L150.66 140.342H157.145Z" fill="#328BD4"/>
<path d="M143.847 134.607L144.17 146.457H141.275L139.559 134.607H143.847Z" fill="#FFBF9D"/>
<path d="M140.875 145.627L144.635 145.69C144.703 145.692 144.769 145.717 144.822 145.761C144.875 145.805 144.911 145.866 144.924 145.933L145.554 149.003C145.581 149.134 145.555 149.269 145.483 149.381C145.41 149.492 145.297 149.571 145.167 149.599H145.06C143.702 149.553 142.506 149.459 140.802 149.429C138.81 149.395 139.312 149.642 136.97 149.638C135.561 149.638 135.331 148.024 135.927 147.956C138.673 147.658 138.971 146.836 140.044 145.874C140.281 145.692 140.577 145.604 140.875 145.627Z" fill="#263238"/>
<path opacity="0.1" d="M144.081 143.2L143.847 134.607H139.559L140.806 143.208C141.739 143.212 143.021 143.204 144.081 143.2Z" fill="black"/>
<path d="M170.013 106.329C170.013 106.329 171.018 115.518 161.671 115.948C152.325 116.378 145.026 117.447 144.813 120.772C144.601 124.098 144.813 141.041 144.813 141.041H139.734C139.734 141.041 137.758 130.327 136.987 123.685C136.238 117.234 134.858 112.554 141.488 110.37C148.527 108.045 161.037 105.899 161.037 105.899L170.047 105.328L170.013 106.329Z" fill="#263238"/>
<path d="M145.563 140.342L145.243 142.058H139.665L139.078 140.342H145.563Z" fill="#328BD4"/>
<path d="M172.027 79.967C172.027 79.967 172.027 77.8976 167.841 78.136C163.396 78.3915 164.234 80.3758 164.234 80.3758L172.027 79.967Z" fill="#328BD4"/>
<path opacity="0.3" d="M172.027 79.967C172.027 79.967 172.027 77.8976 167.841 78.136C163.396 78.3915 164.234 80.3758 164.234 80.3758L172.027 79.967Z" fill="black"/>
<path d="M175.927 89.2496C175.646 93.3416 175.744 105.652 175.744 105.652C175.744 105.652 166.802 106.239 159.785 106.009L158.971 82.3302C158.975 81.9115 159.104 81.5035 159.342 81.1594C159.581 80.8153 159.918 80.5511 160.308 80.4012C162.293 79.6305 166.951 78.7576 174.237 79.7157C176.749 80.0521 176.259 84.4124 175.927 89.2496Z" fill="#328BD4"/>
<path d="M160.406 89.0919C160.406 89.0919 156.932 97.6933 153.538 98.6215C150.144 99.5498 145.022 98.7961 145.022 98.7961L143.438 99.2219L141.888 98.992H141.833L140.078 98.9494C140.015 98.9547 139.952 98.9418 139.896 98.9122C139.84 98.8827 139.793 98.8378 139.762 98.7827C139.731 98.7277 139.716 98.6648 139.719 98.6015C139.722 98.5383 139.743 98.4773 139.78 98.4257L140.41 97.5741C140.463 97.5041 140.536 97.4521 140.619 97.425L142.284 96.8885C142.351 96.8737 142.421 96.8737 142.488 96.8885L145.043 97.293C145.043 97.293 152.133 96.1306 152.853 95.4748C153.572 94.8191 155.714 87.9423 155.714 87.9423L160.406 89.0919Z" fill="#FFBF9D"/>
<path opacity="0.1" d="M160.317 85.0894C160.317 85.0894 159.776 85.7323 159.121 86.6606L159.355 93.5161C161.965 92.3622 163 85.6429 163 85.6429L161.296 84.4421L160.317 85.0894Z" fill="black"/>
<path d="M162.501 80.5715C159.981 79.7455 156.429 81.6403 155.071 89.5774L160.309 91.106C160.309 91.106 166.104 81.7553 162.501 80.5715Z" fill="#328BD4"/>
<path d="M165.835 120.406H161.897V131.95H165.835V120.406Z" fill="#263238"/>
<path opacity="0.6" d="M165.835 120.406H161.897V131.95H165.835V120.406Z" fill="white"/>
<path d="M166.444 142.408V127.743H161.283V142.408L149.535 144.038V145.669L163.864 144.447L178.192 145.669V144.038L166.444 142.408Z" fill="#263238"/>
<path d="M149.365 149.667C150.224 149.667 150.919 148.972 150.919 148.113C150.919 147.255 150.224 146.559 149.365 146.559C148.507 146.559 147.811 147.255 147.811 148.113C147.811 148.972 148.507 149.667 149.365 149.667Z" fill="#328BD4"/>
<path d="M178.192 149.667C179.051 149.667 179.747 148.972 179.747 148.113C179.747 147.255 179.051 146.559 178.192 146.559C177.334 146.559 176.638 147.255 176.638 148.113C176.638 148.972 177.334 149.667 178.192 149.667Z" fill="#328BD4"/>
<path d="M163.864 149.667C164.722 149.667 165.418 148.972 165.418 148.113C165.418 147.255 164.722 146.559 163.864 146.559C163.006 146.559 162.31 147.255 162.31 148.113C162.31 148.972 163.006 149.667 163.864 149.667Z" fill="#328BD4"/>
<path opacity="0.3" d="M165.835 120.406H161.897V123.259H165.835V120.406Z" fill="black"/>
<path d="M179.436 94.2401H166.602C165.593 94.2409 164.621 94.618 163.875 95.2975C163.129 95.9771 162.664 96.9103 162.569 97.9148L161.488 109.51C161.368 110.787 160.792 111.979 159.865 112.868C158.939 113.756 157.724 114.281 156.442 114.347L144.055 114.968C143.33 115.006 142.647 115.32 142.147 115.846C141.647 116.372 141.369 117.07 141.368 117.796V118.056C141.368 118.678 141.616 119.275 142.056 119.715C142.496 120.155 143.092 120.402 143.715 120.402H181.437L183.468 98.6855C183.523 98.123 183.459 97.5552 183.281 97.0187C183.104 96.4822 182.816 95.9888 182.436 95.5702C182.056 95.1516 181.593 94.817 181.076 94.588C180.56 94.3589 180.001 94.2404 179.436 94.2401Z" fill="#328BD4"/>
<path opacity="0.3" d="M179.436 94.2401H166.602C165.593 94.2409 164.621 94.618 163.875 95.2975C163.129 95.9771 162.664 96.9103 162.569 97.9148L161.488 109.51C161.368 110.787 160.792 111.979 159.865 112.868C158.939 113.756 157.724 114.281 156.442 114.347L144.055 114.968C143.33 115.006 142.647 115.32 142.147 115.846C141.647 116.372 141.369 117.07 141.368 117.796V118.056C141.368 118.678 141.616 119.275 142.056 119.715C142.496 120.155 143.092 120.402 143.715 120.402H181.437L183.468 98.6855C183.523 98.123 183.459 97.5552 183.281 97.0187C183.104 96.4822 182.816 95.9888 182.436 95.5702C182.056 95.1516 181.593 94.817 181.076 94.588C180.56 94.3589 180.001 94.2404 179.436 94.2401Z" fill="white"/>
<path d="M149.979 107.304H151.746V116.548C151.746 116.774 151.656 116.991 151.496 117.15C151.336 117.31 151.12 117.4 150.894 117.4H150.83C150.604 117.4 150.388 117.31 150.228 117.15C150.068 116.991 149.979 116.774 149.979 116.548V107.304Z" fill="#263238"/>
<path opacity="0.2" d="M149.979 107.304H151.746V116.548C151.746 116.774 151.656 116.991 151.496 117.15C151.336 117.31 151.12 117.4 150.894 117.4H150.83C150.604 117.4 150.388 117.31 150.228 117.15C150.068 116.991 149.979 116.774 149.979 116.548V107.304Z" fill="white"/>
<path d="M158.499 104.651H154.569V107.909H158.507C158.728 107.92 158.949 107.886 159.157 107.809C159.364 107.733 159.554 107.614 159.714 107.462C159.874 107.31 160.002 107.126 160.089 106.923C160.176 106.72 160.221 106.501 160.221 106.28C160.221 106.059 160.176 105.84 160.089 105.636C160.002 105.433 159.874 105.25 159.714 105.098C159.554 104.945 159.364 104.827 159.157 104.75C158.949 104.674 158.728 104.64 158.507 104.651H158.499Z" fill="#328BD4"/>
<path opacity="0.5" d="M158.499 104.651H154.569V107.909H158.507C158.728 107.92 158.949 107.886 159.157 107.809C159.364 107.733 159.554 107.614 159.714 107.462C159.874 107.31 160.002 107.126 160.089 106.923C160.176 106.72 160.221 106.501 160.221 106.28C160.221 106.059 160.176 105.84 160.089 105.636C160.002 105.433 159.874 105.25 159.714 105.098C159.554 104.945 159.364 104.827 159.157 104.75C158.949 104.674 158.728 104.64 158.507 104.651H158.499Z" fill="white"/>
<path d="M156.928 104.651H143.161C142.294 104.651 141.59 105.354 141.59 106.222V106.341C141.59 107.209 142.294 107.913 143.161 107.913H156.928C157.796 107.913 158.499 107.209 158.499 106.341V106.222C158.499 105.354 157.796 104.651 156.928 104.651Z" fill="#328BD4"/>
<path opacity="0.3" d="M156.928 104.651H143.161C142.294 104.651 141.59 105.354 141.59 106.222V106.341C141.59 107.209 142.294 107.913 143.161 107.913H156.928C157.796 107.913 158.499 107.209 158.499 106.341V106.222C158.499 105.354 157.796 104.651 156.928 104.651Z" fill="white"/>
<path d="M182.323 120.406H163.455L165.559 97.936C165.653 96.9316 166.119 95.9984 166.864 95.3188C167.61 94.6392 168.582 94.2622 169.591 94.2613H182.425C182.989 94.2618 183.546 94.3799 184.061 94.6079C184.577 94.836 185.039 95.169 185.418 95.5857C185.798 96.0025 186.086 96.4937 186.265 97.0282C186.444 97.5626 186.51 98.1285 186.458 98.6897L184.622 118.337C184.562 118.905 184.294 119.43 183.87 119.812C183.445 120.195 182.894 120.406 182.323 120.406Z" fill="#328BD4"/>
<path opacity="0.5" d="M182.323 120.406H163.455L165.559 97.936C165.653 96.9316 166.119 95.9984 166.864 95.3188C167.61 94.6392 168.582 94.2622 169.591 94.2613H182.425C182.989 94.2618 183.546 94.3799 184.061 94.6079C184.577 94.836 185.039 95.169 185.418 95.5857C185.798 96.0025 186.086 96.4937 186.265 97.0282C186.444 97.5626 186.51 98.1285 186.458 98.6897L184.622 118.337C184.562 118.905 184.294 119.43 183.87 119.812C183.445 120.195 182.894 120.406 182.323 120.406Z" fill="white"/>
<path d="M138.248 149.493H119.899C119.533 149.494 119.171 149.422 118.832 149.282C118.494 149.143 118.187 148.937 117.928 148.679C117.668 148.42 117.463 148.113 117.323 147.775C117.183 147.437 117.11 147.074 117.11 146.708V104.519C117.11 104.153 117.183 103.791 117.323 103.452C117.463 103.114 117.668 102.807 117.928 102.548C118.187 102.29 118.494 102.085 118.832 101.945C119.171 101.805 119.533 101.734 119.899 101.734H138.248C138.445 101.734 138.635 101.813 138.774 101.953C138.914 102.092 138.993 102.282 138.993 102.479C138.993 102.677 138.914 102.867 138.774 103.006C138.635 103.146 138.445 103.225 138.248 103.225H119.899C119.73 103.222 119.561 103.253 119.404 103.316C119.247 103.379 119.103 103.472 118.982 103.591C118.861 103.71 118.765 103.852 118.7 104.008C118.634 104.165 118.601 104.332 118.601 104.502V146.691C118.601 146.861 118.634 147.029 118.7 147.185C118.765 147.341 118.861 147.483 118.982 147.602C119.103 147.721 119.247 147.815 119.404 147.878C119.561 147.94 119.73 147.971 119.899 147.969H138.248C138.445 147.969 138.635 148.047 138.774 148.187C138.914 148.327 138.993 148.516 138.993 148.714C138.997 148.814 138.981 148.915 138.946 149.009C138.911 149.104 138.857 149.19 138.787 149.263C138.717 149.336 138.633 149.394 138.541 149.433C138.448 149.473 138.348 149.493 138.248 149.493Z" fill="#263238"/>
<g opacity="0.5">
<path d="M138.248 149.493H119.899C119.533 149.494 119.171 149.422 118.832 149.282C118.494 149.143 118.187 148.937 117.928 148.679C117.668 148.42 117.463 148.113 117.323 147.775C117.183 147.437 117.11 147.074 117.11 146.708V104.519C117.11 104.153 117.183 103.791 117.323 103.452C117.463 103.114 117.668 102.807 117.928 102.548C118.187 102.29 118.494 102.085 118.832 101.945C119.171 101.805 119.533 101.734 119.899 101.734H138.248C138.445 101.734 138.635 101.813 138.774 101.953C138.914 102.092 138.993 102.282 138.993 102.479C138.993 102.677 138.914 102.867 138.774 103.006C138.635 103.146 138.445 103.225 138.248 103.225H119.899C119.73 103.222 119.561 103.253 119.404 103.316C119.247 103.379 119.103 103.472 118.982 103.591C118.861 103.71 118.765 103.852 118.7 104.008C118.634 104.165 118.601 104.332 118.601 104.502V146.691C118.601 146.861 118.634 147.029 118.7 147.185C118.765 147.341 118.861 147.483 118.982 147.602C119.103 147.721 119.247 147.815 119.404 147.878C119.561 147.94 119.73 147.971 119.899 147.969H138.248C138.445 147.969 138.635 148.047 138.774 148.187C138.914 148.327 138.993 148.516 138.993 148.714C138.997 148.814 138.981 148.915 138.946 149.009C138.911 149.104 138.857 149.19 138.787 149.263C138.717 149.336 138.633 149.394 138.541 149.433C138.448 149.473 138.348 149.493 138.248 149.493Z" fill="white"/>
</g>
<path d="M126.12 79.5369L124.843 78.6853C124.81 78.6645 124.784 78.6358 124.765 78.602C124.747 78.5681 124.737 78.5301 124.737 78.4915C124.737 78.4529 124.747 78.415 124.765 78.3811C124.784 78.3472 124.81 78.3186 124.843 78.2978L126.12 77.4462C126.167 77.4154 126.224 77.4043 126.28 77.4155C126.335 77.4267 126.383 77.4591 126.414 77.5058C126.444 77.5524 126.454 77.6086 126.443 77.6626C126.432 77.7166 126.4 77.7642 126.355 77.7953L125.294 78.4979L126.355 79.2005C126.4 79.2317 126.432 79.2792 126.443 79.3333C126.454 79.3873 126.444 79.4435 126.414 79.4901C126.38 79.5338 126.331 79.563 126.277 79.5717C126.222 79.5804 126.166 79.568 126.12 79.5369Z" fill="white"/>
<path d="M128.948 79.4772C128.922 79.4306 128.916 79.3759 128.929 79.3245C128.943 79.273 128.975 79.2287 129.02 79.2005L130.081 78.4979L129.02 77.7825C128.975 77.7514 128.943 77.7035 128.933 77.6492C128.922 77.5949 128.934 77.5387 128.965 77.493C128.98 77.47 128.999 77.4502 129.022 77.4348C129.045 77.4194 129.07 77.4086 129.097 77.403C129.124 77.3975 129.152 77.3973 129.179 77.4025C129.206 77.4077 129.232 77.4182 129.254 77.4334L130.532 78.285C130.564 78.3058 130.591 78.3344 130.61 78.3683C130.628 78.4021 130.638 78.4401 130.638 78.4787C130.638 78.5173 130.628 78.5553 130.61 78.5892C130.591 78.623 130.564 78.6517 130.532 78.6725L129.254 79.5241C129.232 79.542 129.205 79.555 129.177 79.5624C129.149 79.5698 129.12 79.5713 129.091 79.5669C129.062 79.5625 129.035 79.5523 129.01 79.5369C128.986 79.5215 128.964 79.5012 128.948 79.4772Z" fill="white"/>
<path d="M127.198 80.0521C127.171 80.0438 127.147 80.0305 127.126 80.0127C127.104 79.9949 127.087 79.9731 127.074 79.9485C127.062 79.924 127.054 79.8971 127.052 79.8696C127.049 79.842 127.053 79.8143 127.061 79.7881L127.943 77.0033C127.951 76.977 127.963 76.9526 127.981 76.9315C127.998 76.9103 128.02 76.8929 128.044 76.8802C128.068 76.8675 128.095 76.8598 128.122 76.8575C128.149 76.8552 128.177 76.8585 128.203 76.867C128.229 76.8748 128.253 76.8877 128.274 76.9051C128.295 76.9224 128.313 76.9438 128.326 76.9681C128.338 76.9923 128.346 77.0188 128.348 77.0461C128.351 77.0733 128.347 77.1008 128.339 77.1268L127.462 79.9158C127.453 79.9422 127.44 79.9667 127.422 79.9879C127.404 80.009 127.383 80.0265 127.358 80.0391C127.334 80.0518 127.307 80.0595 127.279 80.0617C127.252 80.0639 127.224 80.0606 127.198 80.0521Z" fill="white"/>
<path d="M134.428 82.1811H124.945C124.916 82.1811 124.888 82.1753 124.861 82.1641C124.834 82.153 124.81 82.1366 124.79 82.116C124.77 82.0953 124.754 82.0709 124.743 82.044C124.733 82.0172 124.728 81.9885 124.728 81.9596C124.728 81.9308 124.733 81.9021 124.743 81.8752C124.754 81.8484 124.77 81.8239 124.79 81.8033C124.81 81.7827 124.834 81.7663 124.861 81.7551C124.888 81.744 124.916 81.7382 124.945 81.7382H134.428C134.487 81.7382 134.543 81.7615 134.585 81.8031C134.626 81.8446 134.649 81.9009 134.649 81.9596C134.649 81.9887 134.644 82.0175 134.633 82.0444C134.621 82.0712 134.605 82.0956 134.585 82.1162C134.564 82.1368 134.54 82.1531 134.513 82.1642C134.486 82.1753 134.457 82.1811 134.428 82.1811Z" fill="white"/>
<path d="M145.32 82.1811H135.833C135.804 82.1811 135.775 82.1753 135.748 82.1642C135.721 82.1531 135.697 82.1368 135.676 82.1162C135.656 82.0956 135.64 82.0712 135.628 82.0444C135.617 82.0175 135.612 81.9887 135.612 81.9596C135.616 81.9039 135.641 81.8519 135.682 81.814C135.723 81.7761 135.777 81.7551 135.833 81.7552H145.311C145.37 81.7552 145.427 81.7786 145.468 81.8201C145.51 81.8616 145.533 81.9179 145.533 81.9767C145.529 82.031 145.505 82.0818 145.465 82.1195C145.426 82.1572 145.374 82.1791 145.32 82.1811Z" fill="white"/>
<path d="M130.366 84.1313H124.945C124.916 84.1313 124.888 84.1255 124.861 84.1143C124.834 84.1032 124.81 84.0868 124.79 84.0662C124.77 84.0455 124.754 84.0211 124.743 83.9943C124.733 83.9674 124.728 83.9387 124.728 83.9098C124.728 83.8523 124.751 83.797 124.792 83.7563C124.832 83.7156 124.888 83.6927 124.945 83.6927H130.366C130.424 83.6927 130.479 83.7154 130.521 83.756C130.562 83.7966 130.586 83.8519 130.587 83.9098C130.587 83.9686 130.564 84.0249 130.522 84.0664C130.481 84.1079 130.424 84.1313 130.366 84.1313Z" fill="white"/>
<path d="M140.653 84.1313H131.775C131.746 84.1313 131.718 84.1255 131.691 84.1143C131.664 84.1032 131.64 84.0868 131.62 84.0662C131.6 84.0455 131.584 84.0211 131.573 83.9943C131.563 83.9674 131.557 83.9387 131.558 83.9098C131.558 83.8523 131.581 83.797 131.622 83.7563C131.662 83.7156 131.717 83.6927 131.775 83.6927H140.653C140.711 83.6927 140.766 83.7156 140.807 83.7563C140.847 83.797 140.87 83.8523 140.87 83.9098C140.871 83.9387 140.866 83.9674 140.855 83.9943C140.844 84.0211 140.828 84.0455 140.808 84.0662C140.788 84.0868 140.764 84.1032 140.737 84.1143C140.711 84.1255 140.682 84.1313 140.653 84.1313Z" fill="white"/>
<path d="M139.389 86.0858H124.945C124.887 86.0847 124.832 86.0608 124.791 86.0194C124.751 85.978 124.728 85.9224 124.728 85.8644C124.728 85.8355 124.733 85.8068 124.743 85.7799C124.754 85.7531 124.77 85.7287 124.79 85.708C124.81 85.6874 124.834 85.6711 124.861 85.6599C124.888 85.6487 124.916 85.6429 124.945 85.6429H139.389C139.447 85.6429 139.504 85.6663 139.545 85.7078C139.587 85.7493 139.61 85.8056 139.61 85.8644C139.61 85.9231 139.587 85.9794 139.545 86.0209C139.504 86.0625 139.447 86.0858 139.389 86.0858Z" fill="white"/>
<path d="M143.817 86.0858H140.802C140.744 86.0858 140.687 86.0625 140.646 86.0209C140.604 85.9794 140.581 85.9231 140.581 85.8644C140.581 85.8056 140.604 85.7493 140.646 85.7078C140.687 85.6663 140.744 85.6429 140.802 85.6429H143.817C143.876 85.6429 143.932 85.6663 143.974 85.7078C144.015 85.7493 144.038 85.8056 144.038 85.8644C144.038 85.9231 144.015 85.9794 143.974 86.0209C143.932 86.0625 143.876 86.0858 143.817 86.0858Z" fill="white"/>
<path d="M131.69 88.036H124.945C124.916 88.036 124.888 88.0302 124.861 88.0191C124.834 88.0079 124.81 87.9915 124.79 87.9709C124.77 87.9503 124.754 87.9258 124.743 87.899C124.733 87.8721 124.728 87.8434 124.728 87.8146C124.728 87.7857 124.733 87.757 124.743 87.7302C124.754 87.7033 124.77 87.6789 124.79 87.6582C124.81 87.6376 124.834 87.6213 124.861 87.6101C124.888 87.5989 124.916 87.5931 124.945 87.5931H131.69C131.749 87.5931 131.805 87.6165 131.847 87.658C131.888 87.6995 131.911 87.7558 131.911 87.8146C131.911 87.8733 131.888 87.9296 131.847 87.9711C131.805 88.0127 131.749 88.036 131.69 88.036Z" fill="white"/>
<path d="M141.496 88.036H133.103C133.045 88.036 132.988 88.0127 132.947 87.9711C132.905 87.9296 132.882 87.8733 132.882 87.8146C132.882 87.7558 132.905 87.6995 132.947 87.658C132.988 87.6165 133.045 87.5931 133.103 87.5931H141.496C141.555 87.5931 141.611 87.6165 141.653 87.658C141.694 87.6995 141.718 87.7558 141.718 87.8146C141.718 87.8733 141.694 87.9296 141.653 87.9711C141.611 88.0127 141.555 88.036 141.496 88.036Z" fill="white"/>
<path d="M134.428 89.9862H124.945C124.916 89.9862 124.888 89.9805 124.861 89.9693C124.834 89.9581 124.81 89.9417 124.79 89.9211C124.77 89.9005 124.754 89.8761 124.743 89.8492C124.733 89.8224 124.728 89.7937 124.728 89.7648C124.728 89.7072 124.751 89.652 124.792 89.6113C124.832 89.5705 124.888 89.5476 124.945 89.5476H134.428C134.457 89.5471 134.486 89.5523 134.512 89.5629C134.539 89.5736 134.564 89.5895 134.584 89.6097C134.605 89.63 134.621 89.6541 134.632 89.6807C134.644 89.7073 134.649 89.7359 134.649 89.7648C134.649 89.8235 134.626 89.8799 134.585 89.9214C134.543 89.9629 134.487 89.9862 134.428 89.9862Z" fill="white"/>
<path d="M142.531 89.9862H135.833C135.774 89.9862 135.718 89.9629 135.676 89.9214C135.635 89.8799 135.612 89.8235 135.612 89.7648C135.612 89.7359 135.617 89.7073 135.628 89.6807C135.64 89.6541 135.656 89.63 135.677 89.6097C135.697 89.5895 135.722 89.5736 135.749 89.5629C135.775 89.5523 135.804 89.5471 135.833 89.5476H142.522C142.58 89.5476 142.635 89.5705 142.676 89.6113C142.717 89.652 142.74 89.7072 142.74 89.7648C142.741 89.8217 142.72 89.8768 142.681 89.9182C142.642 89.9596 142.588 89.984 142.531 89.9862Z" fill="white"/>
<path d="M60.2391 51.8721C60.4137 53.8776 59.9794 57.5098 58.4678 58.685C60.9332 59.575 63.5477 61.1079 65.2168 63.1305C66.8732 60.7204 64.9912 59.345 64.9912 59.345C62.8621 58.5871 63.0878 56.9733 63.6371 55.4872L60.2391 51.8721Z" fill="#FFBF9D"/>
<path d="M68.2996 50.1433C68.274 50.3945 68.3933 50.6117 68.5593 50.6287C68.7254 50.6457 68.8744 50.4499 68.9 50.2029C68.9255 49.9559 68.8063 49.7345 68.6402 49.7175C68.4742 49.7005 68.3294 49.8921 68.2996 50.1433Z" fill="#263238"/>
<path d="M68.5764 49.7217L69.1938 49.6025C69.1938 49.6025 68.8404 50.0581 68.5764 49.7217Z" fill="#263238"/>
<path d="M68.3848 50.4115C68.5587 51.0104 68.8122 51.5833 69.1385 52.1147C69.0005 52.1946 68.8468 52.2435 68.688 52.2582C68.5292 52.2729 68.3691 52.253 68.2188 52.1999L68.3848 50.4115Z" fill="#A24E3F"/>
<path d="M69.015 48.819C69.0544 48.8127 69.0905 48.7932 69.1172 48.7636C69.1436 48.7353 69.1582 48.698 69.1582 48.6593C69.1582 48.6206 69.1436 48.5833 69.1172 48.555C68.9422 48.3951 68.7313 48.2796 68.5024 48.2181C68.2734 48.1566 68.0331 48.1509 67.8015 48.2016C67.7688 48.2241 67.7459 48.258 67.7372 48.2967C67.7285 48.3354 67.7348 48.3759 67.7546 48.4102C67.7677 48.4321 67.7865 48.45 67.809 48.462C67.8315 48.474 67.8569 48.4796 67.8824 48.4783C68.0665 48.4431 68.2562 48.4514 68.4366 48.5024C68.617 48.5534 68.7829 48.6457 68.9213 48.7721C68.9461 48.7983 68.9793 48.8148 69.015 48.819Z" fill="#263238"/>
<path d="M60.039 48.5422C59.9411 51.6549 59.8346 52.9791 61.2228 54.7164C63.3135 57.3267 67.0989 56.7561 68.1123 53.7243C69.0236 50.9949 69.0321 46.345 66.1664 44.8377C63.3007 43.3303 60.1284 45.421 60.039 48.5422Z" fill="#FFBF9D"/>
<path d="M60.1751 54.4226C57.1135 53.8988 57.9907 51.9699 57.9907 51.9699C54.9759 51.361 57.3051 49.8877 57.3051 49.8877C54.7971 48.8062 57.3051 47.8353 57.3051 47.8353C54.8865 45.8298 58.3356 45.1357 58.3356 45.1357C57.4839 42.006 60.4646 43.2919 60.4646 43.2919C62.0827 40.6008 63.4793 43.1685 63.4793 43.1685C66.3152 39.3362 67.005 42.5681 67.005 42.5681C69.9048 41.8059 68.7934 44.8547 68.7934 44.8547C71.178 45.4934 69.3044 46.7027 69.3044 46.7027C70.2241 47.8651 66.8986 48.0653 66.8986 48.0653C66.8986 48.0653 68.4826 50.6201 66.8986 51.3227L62.8704 54.4098C62.8704 54.4098 61.0096 53.6519 60.1751 54.4226Z" fill="#263238"/>
<path d="M63.1855 51.9103C63.1855 51.9103 65.3146 46.8006 63.6497 42.4403L65.0548 41.9591C65.0548 41.9591 66.8901 48.2994 63.1855 51.9103Z" fill="#328BD4"/>
<path d="M65.3106 51.3483C65.6598 52.0807 65.7961 52.4001 66.2985 52.6258C66.4537 52.7148 66.6316 52.7562 66.8102 52.7448C66.9887 52.7334 67.1599 52.6697 67.3025 52.5616C67.4451 52.4536 67.5527 52.3059 67.6119 52.1371C67.6711 51.9683 67.6793 51.7858 67.6356 51.6124C67.5036 50.88 66.9415 49.8027 66.1623 49.7814C65.98 49.7823 65.8014 49.8321 65.645 49.9256C65.4886 50.0192 65.3602 50.153 65.2732 50.3131C65.1862 50.4732 65.1437 50.6537 65.1503 50.8358C65.1569 51.0179 65.2123 51.1949 65.3106 51.3483Z" fill="#FFBF9D"/>
<path d="M63.109 61.9849C63.109 61.9849 65.9917 64.114 67.1627 64.9656L75.5043 61.0311C75.4925 60.5686 75.6203 60.1133 75.8709 59.7245C76.1215 59.3356 76.4834 59.0312 76.9095 58.851L77.5056 58.604L78.7618 58.0419C78.9959 57.9374 79.2534 57.8965 79.5084 57.9235C79.7633 57.9504 80.0067 58.0441 80.2138 58.1952C80.457 58.3726 80.6396 58.6208 80.7364 58.9058C80.8332 59.1909 80.8395 59.4989 80.7545 59.7877C80.5794 60.3865 80.2519 60.9296 79.8041 61.364C79.3563 61.7983 78.8035 62.1091 78.1997 62.2659L76.9819 62.5853C76.9819 62.5853 69.8325 68.0016 67.2777 68.1293C64.7228 68.2571 60.98 65.7491 60.98 65.7491L63.109 61.9849Z" fill="#FFBF9D"/>
<path d="M56.177 58.3954C58.3784 58.3954 60.8396 59.7665 64.6931 62.2788C64.1397 64.0898 63.1103 65.7191 61.7125 66.9967C61.7125 66.9967 59.5834 66.4261 56.7561 63.7648C53.3496 60.5415 54.8271 58.3996 56.177 58.3954Z" fill="#263238"/>
<path d="M97.9913 64.774H77.1266C76.9511 64.7768 76.777 64.7423 76.6158 64.6728C76.4546 64.6032 76.3101 64.5002 76.1917 64.3706C76.0734 64.241 75.9839 64.0876 75.9292 63.9208C75.8746 63.754 75.856 63.5775 75.8747 63.4029L77.446 45.4423C77.4835 45.071 77.6559 44.7262 77.9306 44.4735C78.2053 44.2208 78.5631 44.0777 78.9363 44.0712H99.8009C99.9763 44.0683 100.15 44.1028 100.311 44.1724C100.472 44.242 100.617 44.3451 100.735 44.4748C100.853 44.6045 100.942 44.7579 100.996 44.9247C101.05 45.0916 101.068 45.268 101.049 45.4423L99.4773 63.4029C99.4399 63.7736 99.2681 64.1177 98.9943 64.3703C98.7205 64.6229 98.3637 64.7666 97.9913 64.774Z" fill="#328BD4"/>
<path opacity="0.4" d="M97.9913 64.774H77.1266C76.9511 64.7768 76.777 64.7423 76.6158 64.6728C76.4546 64.6032 76.3101 64.5002 76.1917 64.3706C76.0734 64.241 75.9839 64.0876 75.9292 63.9208C75.8746 63.754 75.856 63.5775 75.8747 63.4029L77.446 45.4423C77.4835 45.071 77.6559 44.7262 77.9306 44.4735C78.2053 44.2208 78.5631 44.0777 78.9363 44.0712H99.8009C99.9763 44.0683 100.15 44.1028 100.311 44.1724C100.472 44.242 100.617 44.3451 100.735 44.4748C100.853 44.6045 100.942 44.7579 100.996 44.9247C101.05 45.0916 101.068 45.268 101.049 45.4423L99.4773 63.4029C99.4399 63.7736 99.2681 64.1177 98.9943 64.3703C98.7205 64.6229 98.3637 64.7666 97.9913 64.774Z" fill="white"/>
<path opacity="0.7" d="M98.0679 63.9224C98.209 63.9199 98.3443 63.8656 98.4479 63.7698C98.5516 63.674 98.6164 63.5434 98.6299 63.4029L100.201 45.4423C100.208 45.3762 100.202 45.3094 100.181 45.2463C100.16 45.1831 100.127 45.125 100.082 45.0759C100.037 45.0268 99.9827 44.9877 99.9217 44.9613C99.8608 44.9349 99.7949 44.9218 99.7285 44.9228H78.8639C78.7223 44.9252 78.5865 44.9793 78.4821 45.075C78.3778 45.1708 78.3121 45.3014 78.2976 45.4423L76.7306 63.4029C76.7233 63.4689 76.7302 63.5357 76.7507 63.5989C76.7713 63.662 76.805 63.7201 76.8497 63.7693C76.8944 63.8184 76.9491 63.8574 77.01 63.8838C77.071 63.9102 77.1368 63.9234 77.2032 63.9224H98.0679Z" fill="white"/>
<path d="M83.5692 53.3624L76.7562 63.2242V63.403C76.749 63.469 76.7558 63.5358 76.7764 63.599C76.7969 63.6622 76.8307 63.7202 76.8754 63.7694C76.9201 63.8185 76.9747 63.8576 77.0356 63.884C77.0966 63.9104 77.1625 63.9235 77.2289 63.9225H89.0493L83.5692 53.3624Z" fill="#328BD4"/>
<path opacity="0.3" d="M83.5692 53.3624L76.7562 63.2242V63.403C76.749 63.469 76.7558 63.5358 76.7764 63.599C76.7969 63.6622 76.8307 63.7202 76.8754 63.7694C76.9201 63.8185 76.9747 63.8576 77.0356 63.884C77.0966 63.9104 77.1625 63.9235 77.2289 63.9225H89.0493L83.5692 53.3624Z" fill="white"/>
<path d="M98.6896 62.7174L92.9795 51.8721L84.5229 63.9225H98.0679C98.2091 63.92 98.3443 63.8657 98.448 63.7699C98.5516 63.6741 98.6164 63.5435 98.63 63.403L98.6896 62.7174Z" fill="#328BD4"/>
<path d="M90.7739 49.9559C90.7218 50.4749 90.481 50.9567 90.0972 51.3099C89.7134 51.6631 89.2132 51.8631 88.6917 51.872C88.4462 51.8765 88.2026 51.8286 87.9771 51.7316C87.7515 51.6346 87.5493 51.4906 87.3837 51.3094C87.2181 51.1281 87.0931 50.9136 87.0168 50.6802C86.9406 50.4469 86.915 50.1999 86.9416 49.9559C86.9927 49.4361 87.2331 48.9532 87.617 48.5991C88.0009 48.2451 88.5016 48.0444 89.0238 48.0355C89.2697 48.0309 89.5137 48.0789 89.7396 48.1761C89.9654 48.2734 90.1679 48.4177 90.3336 48.5995C90.4992 48.7812 90.6242 48.9963 90.7001 49.2302C90.776 49.4641 90.8012 49.7115 90.7739 49.9559Z" fill="#328BD4"/>
<path opacity="0.4" d="M90.7739 49.9559C90.7218 50.4749 90.481 50.9567 90.0972 51.3099C89.7134 51.6631 89.2132 51.8631 88.6917 51.872C88.4462 51.8765 88.2026 51.8286 87.9771 51.7316C87.7515 51.6346 87.5493 51.4906 87.3837 51.3094C87.2181 51.1281 87.0931 50.9136 87.0168 50.6802C86.9406 50.4469 86.915 50.1999 86.9416 49.9559C86.9927 49.4361 87.2331 48.9532 87.617 48.5991C88.0009 48.2451 88.5016 48.0444 89.0238 48.0355C89.2697 48.0309 89.5137 48.0789 89.7396 48.1761C89.9654 48.2734 90.1679 48.4177 90.3336 48.5995C90.4992 48.7812 90.6242 48.9963 90.7001 49.2302C90.776 49.4641 90.8012 49.7115 90.7739 49.9559Z" fill="white"/>
<path d="M38.7057 137.268L36.5852 143.553L39.8341 144.881L42.3762 139.082L38.7057 137.268Z" fill="#FFBF9D"/>
<path d="M41.001 144.724C40.9844 144.714 40.9708 144.699 40.9618 144.682C40.9528 144.665 40.9487 144.645 40.9499 144.626C40.9523 144.607 40.9606 144.59 40.9736 144.576C40.9866 144.562 41.0037 144.553 41.0223 144.549C41.0904 144.549 42.6234 144.192 43.1939 144.549C43.3018 144.615 43.3797 144.721 43.4111 144.843C43.435 144.911 43.4371 144.985 43.4173 145.055C43.3975 145.124 43.3566 145.185 43.3004 145.231C43.0832 145.384 42.5765 145.32 42.1124 145.175C41.7297 145.057 41.3579 144.906 41.001 144.724ZM41.3246 144.694C41.9932 144.992 42.9385 145.278 43.1854 145.09C43.2195 145.065 43.2621 145.022 43.228 144.89C43.2214 144.851 43.2056 144.815 43.1818 144.784C43.1581 144.753 43.1272 144.728 43.0917 144.711C43.0415 144.679 42.9871 144.655 42.9299 144.639C42.3962 144.555 41.8514 144.574 41.3246 144.694Z" fill="#328BD4"/>
<path d="M40.9542 144.703C40.946 144.688 40.9417 144.672 40.9417 144.656C40.9417 144.639 40.946 144.623 40.9542 144.609C40.9542 144.566 41.38 143.587 41.9804 143.332C42.0661 143.296 42.158 143.277 42.2508 143.277C42.3436 143.277 42.4355 143.296 42.5212 143.332C42.7554 143.429 42.7937 143.578 42.7724 143.681C42.7213 144.128 41.5716 144.66 41.0692 144.72C41.0632 144.723 41.0567 144.724 41.05 144.724C41.0434 144.724 41.0368 144.723 41.0308 144.72C41.0177 144.724 41.0037 144.724 40.9903 144.721C40.9769 144.718 40.9645 144.712 40.9542 144.703ZM42.3977 143.498C42.2877 143.457 42.167 143.457 42.057 143.498C41.678 143.733 41.3806 144.079 41.2054 144.49C41.7547 144.358 42.5382 143.906 42.5936 143.638C42.5936 143.613 42.5936 143.544 42.4488 143.485H42.3977V143.498Z" fill="#328BD4"/>
<path d="M40.7796 144.081L36.7004 142.804C36.6257 142.781 36.5454 142.784 36.4727 142.812C36.3999 142.841 36.3391 142.893 36.3001 142.961L34.5372 146.052C34.4991 146.117 34.4743 146.189 34.4642 146.264C34.454 146.339 34.4588 146.415 34.4782 146.488C34.4976 146.561 34.5312 146.629 34.5772 146.689C34.6231 146.748 34.6805 146.798 34.7459 146.836C34.7807 146.857 34.8178 146.874 34.8566 146.887C36.3342 147.313 37.6669 147.636 39.4979 148.207C41.661 148.871 41.0308 148.961 43.5601 149.783C45.0845 150.276 45.9021 148.62 45.2634 148.335C42.4062 147.057 42.3764 146.052 41.5588 144.634C41.3739 144.362 41.0973 144.166 40.7796 144.081Z" fill="#263238"/>
<path opacity="0.2" d="M37.6882 140.283L41.0947 142.003L42.3764 139.082L38.7059 137.268L37.6882 140.283Z" fill="#263238"/>
<path d="M53.1067 79.1366C53.1067 79.1366 48.5292 82.6325 49.5086 93.5843C49.6023 94.5977 49.9344 95.658 49.9344 96.8162C49.9344 97.5869 49.7215 98.1277 49.4703 99.8607C49.1041 102.381 48.4313 111.783 47.7202 113.005C47.0091 114.228 46.7196 114.01 44.7395 117.383C42.6105 121.011 39.8427 127.372 37.7009 138.154C39.131 139.163 40.7645 139.848 42.487 140.159C42.487 140.159 54.184 121.713 56.6707 114.845C58.8977 108.7 61.5505 89.092 61.5505 89.092L61.7634 80.5758L53.1067 79.1366Z" fill="#328BD4"/>
<path opacity="0.1" d="M58.1145 93.5843H54.8017C54.8017 93.5843 53.7116 104.008 57.314 112.703C57.6887 111.306 58.0676 109.633 58.4381 107.823L59.8731 98.6429C59.6687 97.093 59.5111 95.9092 59.4856 95.8326C59.4132 95.5898 58.1145 93.5843 58.1145 93.5843Z" fill="black"/>
<path d="M57.5691 139.797L57.5904 146.478L61.3588 146.227L61.9379 139.797H57.5691Z" fill="#FFBF9D"/>
<path d="M61.7933 146.112C61.7746 146.11 61.757 146.101 61.7432 146.088C61.7295 146.075 61.7202 146.058 61.7167 146.04C61.7123 146.021 61.7141 146.001 61.7218 145.984C61.7294 145.966 61.7426 145.951 61.7593 145.942C61.8189 145.908 63.1517 145.09 63.8117 145.235C63.9347 145.262 64.0427 145.335 64.114 145.439C64.158 145.497 64.1836 145.566 64.1874 145.638C64.1912 145.71 64.1731 145.782 64.1353 145.844C63.8077 146.089 63.4026 146.209 62.9941 146.18C62.5926 146.194 62.1907 146.171 61.7933 146.112ZM62.0914 145.98C62.8196 146.044 63.7947 146.001 63.9778 145.742C64.0033 145.707 64.0246 145.652 63.9522 145.537C63.9324 145.504 63.9053 145.475 63.8728 145.454C63.8403 145.432 63.8034 145.419 63.7648 145.414C63.707 145.405 63.6481 145.405 63.5903 145.414C63.0585 145.503 62.5493 145.695 62.0914 145.98Z" fill="#328BD4"/>
<path d="M61.7422 146.112C61.7279 146.103 61.7161 146.09 61.708 146.075C61.6998 146.061 61.6954 146.044 61.6953 146.027C61.6953 145.98 61.7677 144.92 62.2489 144.494C62.3174 144.431 62.3981 144.383 62.4859 144.352C62.5738 144.321 62.667 144.309 62.7598 144.315C63.0153 144.315 63.1005 144.46 63.1133 144.566C63.2112 144.992 62.3042 145.882 61.8358 146.108C61.8234 146.112 61.8099 146.112 61.7975 146.108C61.7801 146.116 61.7605 146.117 61.7422 146.112ZM62.7045 144.494C62.5873 144.496 62.4752 144.542 62.3894 144.622C62.1086 144.969 61.942 145.394 61.9125 145.84C62.3851 145.537 62.977 144.852 62.9429 144.588C62.9429 144.562 62.9216 144.494 62.7556 144.486H62.7045V144.494Z" fill="#328BD4"/>
<path d="M61.376 145.58L57.118 145.733C57.0402 145.736 56.9659 145.766 56.9072 145.817C56.8484 145.868 56.8087 145.938 56.7943 146.014L56.1471 149.514C56.1184 149.663 56.1498 149.817 56.2344 149.942C56.319 150.067 56.45 150.154 56.5985 150.183C56.6395 150.187 56.6809 150.187 56.722 150.183C58.2591 150.098 59.6217 149.966 61.5379 149.902C63.7989 149.821 63.2411 150.11 65.8939 150.055C67.4992 150.017 67.7249 148.186 67.0436 148.122C63.9224 147.841 63.5647 146.913 62.3256 145.844C62.0527 145.641 61.7143 145.547 61.376 145.58Z" fill="#263238"/>
<path opacity="0.2" d="M57.5819 143.255L61.6356 143.17L61.9379 139.797H57.5691L57.5819 143.255Z" fill="#263238"/>
<path d="M55.6573 77.9231C55.6573 77.9231 51.0884 83.9738 54.4735 95.8071L58.3058 113.091C58.3058 113.091 54.6694 120.951 56.6026 141.688C58.4763 141.951 60.3804 141.908 62.2403 141.56C62.2403 141.56 66.4984 119.661 67.1413 112.265C67.8524 104.115 67.4266 79.5497 67.4266 79.5497L55.6573 77.9231Z" fill="#328BD4"/>
<path d="M58.4166 58.3103C58.4166 58.3103 57.7097 55.287 62.2489 56.607C66.788 57.9271 66.4047 60.5117 66.4047 60.5117L58.4166 58.3103Z" fill="#263238"/>
<path opacity="0.4" d="M58.4166 58.3103C58.4166 58.3103 57.7097 55.287 62.2489 56.607C66.788 57.9271 66.4047 60.5117 66.4047 60.5117L58.4166 58.3103Z" fill="black"/>
<path d="M69.6749 65.8727C69.6749 66.9329 69.2491 68.4658 68.8233 70.1819C68.6274 70.9951 68.4486 71.8425 68.3294 72.7026C67.6864 77.3865 67.4777 82.3217 67.4777 82.3217C64.972 82.8682 62.3805 82.8928 59.8647 82.3939C57.349 81.8951 54.963 80.8834 52.8555 79.4219C52.8555 79.4219 54.6396 77.9103 54.2734 67.4396C54.1073 62.7217 52.4041 57.1138 60.2007 57.9952C66.7837 58.7404 68.9979 60.7842 69.5301 63.9821C69.5301 64.0204 69.5301 64.063 69.5301 64.1056L69.5685 64.4036C69.6329 64.8908 69.6684 65.3813 69.6749 65.8727Z" fill="#263238"/>
<path opacity="0.4" d="M69.6749 65.8726C69.6749 66.9328 69.2491 68.4658 68.8233 70.1818C67.0434 68.0527 65.2593 64.0288 65.2593 64.0288L66.7283 61.8657L69.3172 63.0708C69.4067 63.3699 69.4778 63.6742 69.5301 63.982C69.5301 64.0203 69.5301 64.0629 69.5301 64.1055L69.5685 64.4035C69.6329 64.8907 69.6684 65.3812 69.6749 65.8726Z" fill="black"/>
<path d="M72.3876 64.0246C72.3876 64.0246 74.9424 66.5454 75.9516 67.5588L84.7829 64.9103C84.8408 64.4537 85.0339 64.0249 85.3374 63.6789C85.6409 63.3329 86.0409 63.0855 86.4861 62.9686L87.1078 62.8068L88.4363 62.4406C88.6838 62.3736 88.9445 62.3726 89.1925 62.4376C89.4405 62.5026 89.6672 62.6313 89.85 62.8111C90.0641 63.022 90.2077 63.2941 90.2611 63.5899C90.3144 63.8857 90.275 64.1907 90.1481 64.4632C89.8851 65.0291 89.4804 65.5175 88.973 65.8808C88.4657 66.2442 87.873 66.4702 87.2526 66.5369L86.0007 66.6689C86.0007 66.6689 78.119 70.9738 75.5811 70.7354C73.0433 70.4969 69.7092 67.4439 69.7092 67.4439L72.3876 64.0246Z" fill="#FFBF9D"/>
<path d="M66.0428 59.4386C68.2229 59.758 70.4499 61.491 73.9075 64.5483C73.0884 66.2584 71.8252 67.7172 70.2498 68.7724C70.2498 68.7724 68.2357 67.8909 65.8342 64.8379C62.9301 61.1419 64.7228 59.2428 66.0428 59.4386Z" fill="#263238"/>
</svg>
