<svg width="135" height="140" viewBox="0 0 135 140" fill="none" xmlns="http://www.w3.org/2000/svg">
<path d="M131.046 79.1279C126.766 90.6489 118.027 103.119 105.728 106.813C87.1335 112.393 84.9254 127.456 51.6411 126.059C46.7791 125.879 41.951 125.168 37.2419 123.938C34.9432 123.327 32.6851 122.57 30.4811 121.673C11.0352 113.752 0.892447 96.3202 0.0527855 78.0819C-1.05708 54.0904 15.5851 42.6571 26.4019 35.9631C37.2187 29.2691 50.2552 3.33749 82.9846 4.43903C87.9827 4.58984 92.9469 5.31928 97.7789 6.61291C108.793 9.61075 119.988 16.2405 126.496 25.9323C126.984 26.6628 127.451 27.4069 127.896 28.1646C136.607 43.0224 136.877 63.4199 131.046 79.1279Z" fill="#328BD4"/>
<path d="M131.046 79.1279C126.766 90.6489 118.027 103.119 105.728 106.813C87.1335 112.393 84.9254 127.456 51.6411 126.059C46.7791 125.879 41.951 125.168 37.2419 123.938C34.9432 123.327 32.6851 122.57 30.4811 121.673C11.0352 113.752 0.892447 96.3202 0.0527855 78.0819C-1.05708 54.0904 15.5851 42.6571 26.4019 35.9631C37.2187 29.2691 50.2552 3.33749 82.9846 4.43903C87.9827 4.58984 92.9469 5.31928 97.7789 6.61291C108.793 9.61075 119.988 16.2405 126.496 25.9323C126.984 26.6628 127.451 27.4069 127.896 28.1646C136.607 43.0224 136.877 63.42 131.046 79.1279Z" fill="#FEFEFE"/>
<g opacity="0.3">
<path d="M133.411 30.02H111.112V61.4155H133.411V30.02Z" stroke="black" stroke-miterlimit="10"/>
<path d="M132.652 31.0865H111.87V60.3462H132.652V31.0865Z" stroke="black" stroke-miterlimit="10"/>
<path d="M127.19 38.7769H117.329V52.6587H127.19V38.7769Z" stroke="black" stroke-miterlimit="10"/>
</g>
<g opacity="0.3">
<path d="M108.076 30.2188H96.0386V47.1656H108.076V30.2188Z" stroke="black" stroke-miterlimit="10"/>
<path d="M107.666 30.7944H96.4482V46.5871H107.666V30.7944Z" stroke="black" stroke-miterlimit="10"/>
<path d="M104.72 34.9464H99.3972V42.441H104.72V34.9464Z" stroke="black" stroke-miterlimit="10"/>
</g>
<path d="M111.379 124.946V102.307" stroke="#5E5E5E" stroke-width="4" stroke-miterlimit="10"/>
<path d="M108.578 125.405V94.1376" stroke="#5E5E5E" stroke-width="4" stroke-miterlimit="10"/>
<path d="M114.93 125.557V114.576" stroke="#5E5E5E" stroke-width="4" stroke-miterlimit="10"/>
<path d="M107.489 97.2202C107.489 97.2202 106.928 96.1858 105.054 93.9243C103.18 91.6628 95.4052 85.5385 95.4052 85.5385C95.4052 85.5385 99.8097 87.8936 101.216 89.1178C102.622 90.3421 104.496 91.8498 104.496 91.8498C104.496 91.8498 99.249 86.1054 98.6854 85.7285C98.1217 85.3516 104.023 90.2486 104.023 90.2486C104.023 90.2486 101.777 85.7285 100.652 84.2208C99.5279 82.7131 97.3837 79.1338 97.3837 79.1338C97.3837 79.1338 103.485 87.315 103.755 87.8001C104.025 88.2851 105.254 90.345 105.254 90.345L103.099 84.6912L105.714 89.3078C105.714 89.3078 101.966 81.4888 101.78 81.1119C101.594 80.735 104.394 84.7847 104.394 84.7847L101.96 77.4391L107.582 89.0243L107.207 84.5042L108.235 89.2143L108.526 77.6261L109.183 89.1178C109.183 89.1178 110.211 81.7723 110.4 80.2646C110.589 78.7569 110.69 77.1557 110.69 77.1557C110.69 77.1557 110.502 87.1397 110.502 87.4232C110.502 87.7066 110.316 89.9681 110.316 89.9681L112.094 84.5977C112.469 83.4669 112.843 79.6042 113.032 79.0461C113.221 78.4881 112.094 87.7124 112.001 88.1039C111.836 88.7186 111.616 89.3171 111.344 89.8921C111.054 90.459 113.407 86.5028 114.25 84.8052L116.67 79.8906C116.67 79.8906 115.264 84.6006 114.889 85.4421C114.514 86.2836 112.079 90.8125 112.079 90.8125C112.079 90.8125 115.734 86.4794 117.326 85.3486C118.919 84.2179 121.821 82.0498 121.821 82.0498C121.821 82.0498 117.14 87.1397 116.202 88.0718C115.264 89.0039 112.547 92.3114 112.547 92.3114C112.547 92.3114 117.231 89.2961 117.512 89.0127C117.794 88.7292 121.167 86.5641 121.167 86.5641C121.167 86.5641 114.366 91.9667 114.046 92.3114C111.33 95.2333 110.394 96.6446 109.83 97.2085C109.685 97.3769 109.506 97.5121 109.304 97.6051C109.103 97.6981 108.884 97.7468 108.662 97.7479C108.441 97.749 108.221 97.7025 108.019 97.6115C107.816 97.5205 107.636 97.3871 107.489 97.2202Z" fill="#328BD4"/>
<path d="M110.723 105.48C110.214 104.654 109.638 103.872 109 103.143C107.675 101.545 102.175 97.2143 102.175 97.2143C102.175 97.2143 105.289 98.8798 106.283 99.7447C107.277 100.61 108.607 101.679 108.607 101.679C108.607 101.679 104.897 97.6146 104.499 97.3458C104.101 97.077 108.276 100.545 108.276 100.545C108.276 100.545 106.687 97.3458 105.891 96.2793C105.095 95.2129 103.566 92.6825 103.566 92.6825C103.566 92.6825 107.872 98.4795 108.073 98.8184L109.133 100.618L107.608 96.6183L109.464 99.8849C109.464 99.8849 106.815 94.3538 106.681 94.0879C106.547 93.822 108.538 96.6855 108.538 96.6855L106.815 91.4875L110.789 99.6833L110.525 96.4868L111.254 99.8177L111.452 91.6219L111.911 99.7593C111.911 99.7593 112.637 94.5613 112.782 93.4977C112.928 92.4342 112.98 91.2975 112.98 91.2975C112.98 91.2975 112.849 98.3597 112.849 98.5613C112.849 98.7629 112.716 100.361 112.716 100.361L113.977 96.5628C114.241 95.7622 114.505 93.0302 114.639 92.6299C114.773 92.2296 113.977 98.7658 113.91 99.0259C113.793 99.4618 113.637 99.8862 113.445 100.294C113.247 100.694 114.898 97.8951 115.499 96.6942L117.222 93.2289C117.222 93.2289 116.228 96.5628 115.964 97.1617C115.699 97.7607 113.977 100.96 113.977 100.96C113.977 100.96 116.559 97.8951 117.687 97.0945C118.814 96.2939 120.865 94.757 120.865 94.757C120.865 94.757 117.553 98.3539 116.891 99.0201C116.228 99.6862 114.308 102.021 114.308 102.021C114.308 102.021 117.62 99.8878 117.817 99.6833C118.015 99.4788 120.403 97.9536 120.403 97.9536C120.403 97.9536 115.592 101.772 115.365 102.018C113.445 104.084 112.782 105.083 112.384 105.483C112.281 105.602 112.153 105.697 112.009 105.763C111.866 105.828 111.71 105.861 111.553 105.861C111.395 105.861 111.24 105.827 111.097 105.761C110.954 105.695 110.826 105.6 110.723 105.48Z" fill="#328BD4"/>
<path d="M114.096 114.994C113.588 114.167 113.011 113.386 112.373 112.656C111.048 111.055 105.548 106.725 105.548 106.725C105.548 106.725 108.662 108.39 109.656 109.258C110.65 110.126 111.98 111.19 111.98 111.19C111.98 111.19 108.27 107.125 107.872 106.859C107.474 106.594 111.649 110.056 111.649 110.056C111.649 110.056 110.06 106.859 109.264 105.793C108.468 104.726 106.94 102.193 106.94 102.193C106.94 102.193 111.245 107.99 111.446 108.329C111.646 108.668 112.503 110.129 112.503 110.129L110.981 106.132L112.835 109.401C112.835 109.401 110.185 103.87 110.054 103.604C109.923 103.339 111.911 106.187 111.911 106.187L110.188 100.989L114.165 109.185L113.898 105.986L114.627 109.317L114.816 101.133L115.278 109.264C115.278 109.264 116.007 104.066 116.15 103C116.292 101.933 116.347 100.799 116.347 100.799C116.347 100.799 116.216 107.865 116.216 108.063C116.216 108.262 116.083 109.863 116.083 109.863L117.341 106.065C117.605 105.264 117.873 102.532 118.003 102.132C118.134 101.732 117.341 108.268 117.274 108.531C117.158 108.965 117.003 109.389 116.812 109.796C116.612 110.196 118.265 107.397 118.866 106.199L120.589 102.734C120.589 102.734 119.595 106.065 119.328 106.664C119.061 107.263 117.341 110.462 117.341 110.462C117.341 110.462 119.927 107.397 121.051 106.596C122.175 105.796 124.247 104.259 124.247 104.259C124.247 104.259 120.917 107.865 120.258 108.525C119.598 109.185 117.672 111.523 117.672 111.523C117.672 111.523 120.987 109.39 121.185 109.185C121.382 108.981 123.768 107.453 123.768 107.453C123.768 107.453 118.959 111.274 118.733 111.517C116.812 113.583 116.15 114.582 115.752 114.982C115.649 115.102 115.522 115.197 115.38 115.264C115.238 115.33 115.083 115.364 114.926 115.365C114.769 115.367 114.614 115.334 114.471 115.27C114.328 115.206 114.2 115.112 114.096 114.994Z" fill="#328BD4"/>
<path d="M117.498 138.988C118.037 136.999 118.308 134.946 118.303 132.885C118.303 132.496 118.303 132.11 118.276 131.73C118.233 130.768 118.132 129.808 117.971 128.858C117.913 128.511 117.846 128.169 117.774 127.833C117.713 127.555 117.646 127.28 117.576 127.012C117.272 125.826 116.833 124.68 116.269 123.596H106.547C105.988 124.681 105.554 125.827 105.252 127.012C105.179 127.28 105.115 127.555 105.054 127.833C104.978 128.169 104.915 128.511 104.854 128.858C104.698 129.809 104.601 130.768 104.563 131.73C104.543 132.11 104.537 132.496 104.537 132.885C104.526 134.946 104.792 136.999 105.327 138.988H117.498Z" fill="white" stroke="#263238" stroke-miterlimit="10"/>
<path d="M117.562 127.012H105.252C105.179 127.28 105.115 127.555 105.054 127.833H117.759C117.698 127.555 117.631 127.28 117.562 127.012ZM117.957 128.858H104.854C104.698 129.809 104.601 130.768 104.563 131.73H118.274C118.227 130.767 118.121 129.808 117.957 128.858Z" fill="#263238" stroke="#263238" stroke-miterlimit="10"/>
<path d="M8.06587 3.92181H88.6124V88.7145H6.40979V5.58435C6.40979 5.14264 6.58427 4.71902 6.89484 4.40669C7.20542 4.09435 7.62665 3.91888 8.06587 3.91888V3.92181Z" fill="#263238" stroke="#263238" stroke-miterlimit="10"/>
<path d="M10.598 1H90.6592C91.0831 1 91.4895 1.16931 91.7892 1.47069C92.0889 1.77206 92.2572 2.18082 92.2572 2.60703V86.2076H9V2.60703C9 2.18082 9.16836 1.77206 9.46803 1.47069C9.76771 1.16931 10.1742 1 10.598 1Z" fill="white" stroke="#263238" stroke-miterlimit="10"/>
<path d="M10.5588 0.999939H28.918C29.3418 0.999939 29.7483 1.16925 30.048 1.47063C30.3476 1.772 30.516 2.18076 30.516 2.60697V86.2076H8.96082V2.60697C8.96082 2.18076 9.12917 1.772 9.42885 1.47063C9.72853 1.16925 10.135 0.999939 10.5588 0.999939Z" fill="#ABABAB"/>
<path d="M10.5588 0.999939H90.6201C91.0439 0.999939 91.4503 1.16925 91.75 1.47063C92.0497 1.772 92.218 2.18076 92.218 2.60697V10.2477H8.96082V2.60697C8.96082 2.18076 9.12917 1.772 9.42885 1.47063C9.72853 1.16925 10.135 0.999939 10.5588 0.999939Z" fill="#328BD4" stroke="#263238" stroke-miterlimit="10"/>
<path d="M10.5588 0.999939H90.6201C91.0439 0.999939 91.4503 1.16925 91.75 1.47063C92.0497 1.772 92.218 2.18076 92.218 2.60697V6.9664H8.96082V2.60697C8.96082 2.18076 9.12917 1.772 9.42885 1.47063C9.72853 1.16925 10.135 0.999939 10.5588 0.999939Z" fill="#263238" stroke="#263238" stroke-miterlimit="10"/>
<path d="M81.0263 4.16438C81.0263 3.91242 80.952 3.66612 80.8128 3.45662C80.6736 3.24712 80.4758 3.08384 80.2443 2.98742C80.0129 2.89099 79.7581 2.86577 79.5124 2.91492C79.2667 2.96408 79.041 3.08541 78.8638 3.26357C78.6867 3.44173 78.566 3.66873 78.5171 3.91585C78.4683 4.16297 78.4933 4.41911 78.5892 4.65189C78.6851 4.88467 78.8475 5.08364 79.0558 5.22362C79.2641 5.3636 79.509 5.43832 79.7596 5.43832C80.0953 5.43754 80.417 5.30308 80.6544 5.06434C80.8918 4.82559 81.0255 4.50201 81.0263 4.16438Z" fill="white" stroke="#263238" stroke-miterlimit="10"/>
<path d="M85.8841 4.16438C85.8841 3.91242 85.8098 3.66612 85.6706 3.45662C85.5314 3.24712 85.3336 3.08384 85.1021 2.98742C84.8706 2.89099 84.6159 2.86577 84.3702 2.91492C84.1245 2.96408 83.8988 3.08541 83.7216 3.26357C83.5445 3.44173 83.4238 3.66873 83.3749 3.91585C83.326 4.16297 83.3511 4.41911 83.447 4.65189C83.5429 4.88467 83.7053 5.08364 83.9136 5.22362C84.1219 5.3636 84.3668 5.43832 84.6173 5.43832C84.9531 5.43754 85.2748 5.30308 85.5122 5.06434C85.7496 4.82559 85.8833 4.50201 85.8841 4.16438Z" fill="white" stroke="#263238" stroke-miterlimit="10"/>
<path d="M90.745 4.16436C90.7456 3.9117 90.6716 3.66455 90.5324 3.45418C90.3933 3.24382 90.1952 3.07971 89.9632 2.98262C89.7313 2.88553 89.4759 2.85982 89.2294 2.90876C88.9829 2.9577 88.7564 3.07908 88.5786 3.25753C88.4007 3.43599 88.2795 3.6635 88.2303 3.91126C88.1811 4.15903 88.206 4.41591 88.3021 4.6494C88.3981 4.88288 88.5608 5.08247 88.7697 5.2229C88.9785 5.36334 89.2241 5.4383 89.4753 5.4383C89.8116 5.4383 90.1341 5.30418 90.3721 5.06535C90.6101 4.82652 90.7442 4.5025 90.745 4.16436Z" fill="white" stroke="#263238" stroke-miterlimit="10"/>
<path d="M36.8439 10.049V8.0592" stroke="#263238" stroke-miterlimit="10"/>
<path d="M49.1047 10.049V8.0592" stroke="#263238" stroke-miterlimit="10"/>
<path d="M61.3684 10.049V8.0592" stroke="#263238" stroke-miterlimit="10"/>
<path d="M73.6292 10.049V8.0592" stroke="#263238" stroke-miterlimit="10"/>
<path d="M85.89 10.049V8.0592" stroke="#263238" stroke-miterlimit="10"/>
<path d="M87.4735 17.9468H34.8683V70.4529H87.4735V17.9468Z" fill="white" stroke="#263238" stroke-miterlimit="10"/>
<path d="M64.3232 31.1654H71.4066" stroke="#263238" stroke-miterlimit="10"/>
<path d="M64.3232 36.4014H71.4066" stroke="#263238" stroke-miterlimit="10"/>
<path d="M64.3232 41.6345H71.4066" stroke="#263238" stroke-miterlimit="10"/>
<path d="M50.7317 53.1583H54.1862" stroke="#263238" stroke-miterlimit="10"/>
<path d="M42.6635 53.1583H49.9444" stroke="#263238" stroke-miterlimit="10"/>
<path d="M39.2177 53.1583H41.6785" stroke="#263238" stroke-miterlimit="10"/>
<path d="M45.1243 54.7683H54.1862" stroke="#263238" stroke-miterlimit="10"/>
<path d="M39.2177 54.7683H44.337" stroke="#263238" stroke-miterlimit="10"/>
<path d="M50.4382 56.3753H54.1862" stroke="#263238" stroke-miterlimit="10"/>
<path d="M43.4508 56.3753H49.4534" stroke="#263238" stroke-miterlimit="10"/>
<path d="M39.2177 56.3753H42.5647" stroke="#263238" stroke-miterlimit="10"/>
<path d="M39.2177 57.9823H54.1863" stroke="#263238" stroke-miterlimit="10"/>
<path d="M45.4177 59.5894H54.1862" stroke="#263238" stroke-miterlimit="10"/>
<path d="M39.2177 59.5894H44.337" stroke="#263238" stroke-miterlimit="10"/>
<path d="M51.6179 61.1993H54.1863" stroke="#263238" stroke-miterlimit="10"/>
<path d="M39.2177 61.1993H50.8305" stroke="#263238" stroke-miterlimit="10"/>
<path d="M52.0131 62.8063H54.1863" stroke="#263238" stroke-miterlimit="10"/>
<path d="M43.1544 62.8063H51.4232" stroke="#263238" stroke-miterlimit="10"/>
<path d="M39.2177 62.8063H42.5647" stroke="#263238" stroke-miterlimit="10"/>
<path d="M52.4053 64.4134H54.1863" stroke="#263238" stroke-miterlimit="10"/>
<path d="M46.5015 64.4134H51.3244" stroke="#263238" stroke-miterlimit="10"/>
<path d="M39.2177 64.4134H45.8129" stroke="#263238" stroke-miterlimit="10"/>
<path d="M81.9532 29.7219H84.5536" stroke="#263238" stroke-miterlimit="10"/>
<path d="M75.8751 29.7219H81.3605" stroke="#263238" stroke-miterlimit="10"/>
<path d="M73.2805 29.7219H75.1342" stroke="#263238" stroke-miterlimit="10"/>
<path d="M77.7286 31.6154H84.5534" stroke="#263238" stroke-miterlimit="10"/>
<path d="M73.2805 31.6154H77.136" stroke="#263238" stroke-miterlimit="10"/>
<path d="M81.7295 33.5087H84.5535" stroke="#263238" stroke-miterlimit="10"/>
<path d="M76.4678 33.5087H80.9886" stroke="#263238" stroke-miterlimit="10"/>
<path d="M73.2805 33.5087H75.7995" stroke="#263238" stroke-miterlimit="10"/>
<path d="M73.2805 35.4021H84.5535" stroke="#263238" stroke-miterlimit="10"/>
<path d="M77.9495 37.2925H84.5534" stroke="#263238" stroke-miterlimit="10"/>
<path d="M73.2805 37.2925H77.136" stroke="#263238" stroke-miterlimit="10"/>
<path d="M82.6185 39.1859H84.5535" stroke="#263238" stroke-miterlimit="10"/>
<path d="M73.2805 39.1859H82.0258" stroke="#263238" stroke-miterlimit="10"/>
<path d="M82.9149 41.0793H84.5536" stroke="#263238" stroke-miterlimit="10"/>
<path d="M76.244 41.0793H82.4703" stroke="#263238" stroke-miterlimit="10"/>
<path d="M73.2805 41.0793H75.7995" stroke="#263238" stroke-miterlimit="10"/>
<path d="M83.2141 42.9727H84.5535" stroke="#263238" stroke-miterlimit="10"/>
<path d="M78.7659 42.9727H82.3976" stroke="#263238" stroke-miterlimit="10"/>
<path d="M73.2805 42.9727H78.2458" stroke="#263238" stroke-miterlimit="10"/>
<path d="M46.8297 44.9391C45.4407 44.9388 44.0744 44.585 42.858 43.9106L43.9388 41.9442C45.0909 42.5844 46.4211 42.8239 47.7224 42.6253C49.0238 42.4267 50.2234 41.8011 51.1347 40.846C52.0461 39.8908 52.618 38.6596 52.7616 37.3438C52.9052 36.028 52.6124 34.7013 51.9287 33.5701L53.8346 32.4014C54.5917 33.6519 55.0041 35.0826 55.0296 36.5465C55.055 38.0104 54.6926 39.4547 53.9794 40.7311C53.2663 42.0076 52.2281 43.0701 50.9717 43.8096C49.7152 44.5491 48.2856 44.939 46.8297 44.9391Z" fill="#328BD4" stroke="#263238" stroke-miterlimit="10"/>
<path d="M42.8551 43.9106C41.387 43.0943 40.203 41.845 39.4627 40.3311C38.7223 38.8172 38.4611 37.1115 38.7144 35.4437C38.9677 33.776 39.7232 32.2264 40.8792 31.0038C42.0351 29.7811 43.536 28.9442 45.1795 28.6058L45.6211 30.8089C44.4253 31.0548 43.3332 31.6634 42.4919 32.5526C41.6506 33.4417 41.1004 34.5689 40.9155 35.7821C40.7307 36.9954 40.92 38.2365 41.4579 39.3382C41.9959 40.44 42.8567 41.3495 43.9243 41.9442L42.8551 43.9106Z" fill="#263238" stroke="#263238" stroke-miterlimit="10"/>
<path d="M51.9259 33.5701C51.3959 32.6885 50.648 31.9598 49.755 31.455C48.862 30.9501 47.8543 30.6863 46.8298 30.6892C46.4288 30.6892 46.0288 30.7293 45.6357 30.809L45.1941 28.6059C45.7326 28.4971 46.2805 28.4423 46.8298 28.4423C48.2381 28.4373 49.6236 28.7994 50.8512 29.4932C52.0789 30.1871 53.1068 31.1891 53.8348 32.4014L51.9259 33.5701Z" fill="#ABABAB" stroke="#263238" stroke-miterlimit="10"/>
<path d="M62.8763 29.8564H60.4183V32.3283H62.8763V29.8564Z" fill="#328BD4" stroke="#263238" stroke-miterlimit="10"/>
<path d="M62.8763 35.1654H60.4183V37.6373H62.8763V35.1654Z" fill="#263238" stroke="#263238" stroke-miterlimit="10"/>
<path d="M62.8763 40.4716H60.4183V42.9435H62.8763V40.4716Z" fill="#ABABAB" stroke="#263238" stroke-miterlimit="10"/>
<path d="M63.3441 55.0604H59.7095V64.8516H63.3441V55.0604Z" fill="#263238"/>
<path d="M68.1409 50.6747H64.5062V64.8517H68.1409V50.6747Z" fill="#328BD4" stroke="#263238" stroke-miterlimit="10"/>
<path d="M72.9378 57.2519H69.3031V64.8517H72.9378V57.2519Z" fill="#263238"/>
<path d="M77.7317 52.72H74.097V64.8516H77.7317V52.72Z" fill="#328BD4" stroke="#263238" stroke-miterlimit="10"/>
<path d="M82.5285 48.7755H78.8938V64.8516H82.5285V48.7755Z" fill="#263238"/>
<path d="M72.2433 21.7277H53.6545V23.5188H72.2433V21.7277Z" fill="#263238"/>
<path d="M28.1451 15.7115H11.3345V33.8096H28.1451V15.7115Z" fill="white" stroke="#263238" stroke-miterlimit="10"/>
<path d="M19.7369 27.8345C18.9483 27.8345 18.1726 27.6335 17.4823 27.2501L18.0982 26.1281C18.752 26.4894 19.506 26.6237 20.2434 26.5104C20.9808 26.3971 21.6604 26.0423 22.177 25.5012C22.6936 24.96 23.0183 24.2626 23.1009 23.517C23.1834 22.7715 23.0192 22.0193 22.6336 21.3771L23.7173 20.7139C24.1506 21.4237 24.3874 22.237 24.4033 23.0698C24.4192 23.9025 24.2136 24.7244 23.8077 25.4504C23.4019 26.1765 22.8105 26.7803 22.0948 27.1994C21.3791 27.6186 20.5651 27.8378 19.7369 27.8345Z" fill="#328BD4"/>
<path d="M17.4852 27.2471C16.6467 26.7867 15.9696 26.0776 15.5461 25.2164C15.1226 24.3551 14.9733 23.3836 15.1184 22.434C15.2635 21.4843 15.696 20.6027 16.3571 19.9091C17.0182 19.2155 17.8757 18.7435 18.813 18.5575L19.0628 19.8081C18.3848 19.9483 17.7656 20.294 17.2886 20.7986C16.8116 21.3032 16.4996 21.9425 16.3946 22.6306C16.2896 23.3188 16.3965 24.0228 16.7011 24.648C17.0056 25.2732 17.4932 25.7897 18.0983 26.1281L17.4852 27.2471Z" fill="#263238"/>
<path d="M22.6336 21.3771C22.3321 20.8743 21.9057 20.4591 21.3963 20.1722C20.8869 19.8853 20.312 19.7366 19.7282 19.7409C19.5009 19.7412 19.2742 19.7637 19.0513 19.8081L18.8014 18.5575C19.1065 18.4956 19.417 18.4643 19.7282 18.464C20.5284 18.4612 21.3157 18.667 22.0133 19.0613C22.7109 19.4556 23.295 20.025 23.7086 20.7139L22.6336 21.3771Z" fill="#ABABAB"/>
<path d="M22.7731 29.4619H25.3734" stroke="#263238" stroke-miterlimit="10"/>
<path d="M16.6949 29.4619H22.1803" stroke="#263238" stroke-miterlimit="10"/>
<path d="M14.1005 29.4619H15.9541" stroke="#263238" stroke-miterlimit="10"/>
<path d="M18.5486 30.3531H25.3734" stroke="#263238" stroke-miterlimit="10"/>
<path d="M14.1005 30.3531H17.9559" stroke="#263238" stroke-miterlimit="10"/>
<path d="M22.5522 31.2472H25.3734" stroke="#263238" stroke-miterlimit="10"/>
<path d="M17.2876 31.2472H21.8113" stroke="#263238" stroke-miterlimit="10"/>
<path d="M14.1005 31.2472H16.6224" stroke="#263238" stroke-miterlimit="10"/>
<path d="M28.1451 40.2232H11.3345V58.3213H28.1451V40.2232Z" fill="white" stroke="#263238" stroke-miterlimit="10"/>
<path d="M23.0984 42.2159H26.2391" stroke="#263238" stroke-miterlimit="10"/>
<path d="M15.7565 42.2159H19.0977" stroke="#263238" stroke-miterlimit="10"/>
<path d="M12.6245 42.2159H14.8617" stroke="#263238" stroke-miterlimit="10"/>
<path d="M17.9966 44.1093H19.0454" stroke="#263238" stroke-miterlimit="10"/>
<path d="M12.6245 44.1093H17.279" stroke="#263238" stroke-miterlimit="10"/>
<path d="M16.4741 46.0026H19.0454" stroke="#263238" stroke-miterlimit="10"/>
<path d="M12.6245 46.0026H15.6665" stroke="#263238" stroke-miterlimit="10"/>
<path d="M12.6245 47.896H19.0455" stroke="#263238" stroke-miterlimit="10"/>
<path d="M18.2638 49.7894H26.2391" stroke="#263238" stroke-miterlimit="10"/>
<path d="M12.6245 49.7894H17.279" stroke="#263238" stroke-miterlimit="10"/>
<path d="M23.9032 51.6828H26.2391" stroke="#263238" stroke-miterlimit="10"/>
<path d="M12.6245 51.6828H23.1886" stroke="#263238" stroke-miterlimit="10"/>
<path d="M24.2635 53.5732H26.2392" stroke="#263238" stroke-miterlimit="10"/>
<path d="M16.2039 53.5732H23.7259" stroke="#263238" stroke-miterlimit="10"/>
<path d="M12.6245 53.5732H15.6665" stroke="#263238" stroke-miterlimit="10"/>
<path d="M24.6208 55.4666H26.2392" stroke="#263238" stroke-miterlimit="10"/>
<path d="M19.2488 55.4666H23.6359" stroke="#263238" stroke-miterlimit="10"/>
<path d="M12.6245 55.4666H18.6213" stroke="#263238" stroke-miterlimit="10"/>
<path d="M26.242 42.2305H19.6526V48.8573H26.242V42.2305Z" stroke="#263238" stroke-miterlimit="10"/>
<path d="M19.6526 48.8544L22.1745 46.0348L23.4354 46.8822L25.26 44.7667L26.0997 45.1904" stroke="#263238" stroke-miterlimit="10"/>
<path d="M21.6137 45.0501C22.1561 45.0501 22.5958 44.6079 22.5958 44.0625C22.5958 43.5171 22.1561 43.0749 21.6137 43.0749C21.0714 43.0749 20.6317 43.5171 20.6317 44.0625C20.6317 44.6079 21.0714 45.0501 21.6137 45.0501Z" stroke="#263238" stroke-miterlimit="10"/>
<path d="M28.1451 63.5427H11.3345V81.6407H28.1451V63.5427Z" fill="white" stroke="#263238" stroke-miterlimit="10"/>
<path d="M18.6793 73.9036H25.2833" stroke="#263238" stroke-miterlimit="10"/>
<path d="M14.0104 73.9036H17.8629" stroke="#263238" stroke-miterlimit="10"/>
<path d="M23.3484 75.7969H25.2834" stroke="#263238" stroke-miterlimit="10"/>
<path d="M14.0104 75.7969H22.7556" stroke="#263238" stroke-miterlimit="10"/>
<path d="M23.6447 77.6903H25.2833" stroke="#263238" stroke-miterlimit="10"/>
<path d="M16.9739 77.6903H23.2002" stroke="#263238" stroke-miterlimit="10"/>
<path d="M14.0104 77.6903H16.5294" stroke="#263238" stroke-miterlimit="10"/>
<path d="M23.9409 79.5837H25.2832" stroke="#263238" stroke-miterlimit="10"/>
<path d="M19.4957 79.5837H23.1275" stroke="#263238" stroke-miterlimit="10"/>
<path d="M14.0104 79.5837H18.9757" stroke="#263238" stroke-miterlimit="10"/>
<path d="M15.8756 68.3959H14.0946V72.7319H15.8756V68.3959Z" fill="#263238"/>
<path d="M18.2261 66.4557H16.4451V72.7319H18.2261V66.4557Z" fill="#328BD4" stroke="#263238" stroke-miterlimit="10"/>
<path d="M20.5765 69.3688H18.7955V72.7348H20.5765V69.3688Z" fill="#263238"/>
<path d="M22.9241 67.3615H21.1431V72.7319H22.9241V67.3615Z" fill="#328BD4" stroke="#263238" stroke-miterlimit="10"/>
<path d="M25.2745 65.6143H23.4935V72.7319H25.2745V65.6143Z" fill="#263238"/>
<path d="M72.6646 138.988V105.048C72.6681 104.755 72.6141 104.465 72.5059 104.193C72.3976 103.921 72.2371 103.674 72.0337 103.465C71.8302 103.256 71.5877 103.089 71.3201 102.974C71.0525 102.859 70.7649 102.798 70.4739 102.795H32.8606C32.2732 102.802 31.7125 103.043 31.3017 103.466C30.891 103.888 30.6637 104.457 30.6699 105.048V138.988H72.6646Z" fill="#D4D4D4" stroke="#263238" stroke-miterlimit="10"/>
<path d="M76.8542 138.988V105.048C76.8604 104.457 76.6332 103.888 76.2224 103.466C75.8117 103.043 75.251 102.802 74.6635 102.795H37.0502C36.7592 102.798 36.4717 102.859 36.204 102.974C35.9364 103.089 35.6939 103.256 35.4905 103.465C35.287 103.674 35.1265 103.921 35.0183 104.193C34.91 104.465 34.8561 104.755 34.8595 105.048V138.988H76.8542Z" fill="#D4D4D4" stroke="#263238" stroke-miterlimit="10"/>
<path d="M97.8806 138.988V122.55C97.8852 122.095 97.7104 121.658 97.3945 121.333C97.0785 121.008 96.6473 120.823 96.1955 120.817H74.9453C74.4948 120.824 74.0654 121.01 73.7511 121.335C73.4369 121.66 73.2635 122.097 73.2689 122.55V139L97.8806 138.988Z" fill="#D4D4D4" stroke="#263238" stroke-miterlimit="10"/>
<path d="M97.8806 138.988V122.594C97.8988 122.139 97.7372 121.696 97.4312 121.361C97.1252 121.026 96.6997 120.826 96.2478 120.806H87.6536C87.2017 120.826 86.7762 121.026 86.4702 121.361C86.1642 121.696 86.0027 122.139 86.0208 122.594V138.988H97.8806Z" fill="#D4D4D4" stroke="#263238" stroke-miterlimit="10"/>
<path d="M93.7636 138.988C89.9866 136.56 80.9973 130.679 79.1465 128.508C76.7903 125.743 76.2992 124.855 74.434 124.955C72.5687 125.054 53.5151 127.719 53.5151 127.719C52.7181 128.761 52.1793 129.979 51.9432 131.272C51.6992 132.917 53.6865 137.495 54.3722 138.988H93.7636Z" fill="#263238" stroke="#263238" stroke-miterlimit="10"/>
<path d="M61.0838 88.028C61.3744 88.0455 66.9731 88.6124 69.2189 89.6087C71.4648 90.6051 76.2878 91.879 77.8596 92.5715C79.4314 93.264 80.3118 94.05 80.5093 96.1245C80.7069 98.199 82.5722 105.898 82.8656 107.181C83.1591 108.464 83.6501 113.901 83.0632 115.575C82.4763 117.25 75.5091 117.451 75.5091 117.451C75.5091 117.451 75.4104 120.116 75.7997 121.597C76.189 123.079 77.1739 125.448 73.9344 126.039C70.6949 126.629 54.0063 130.188 52.8267 129.396C51.6471 128.604 52.141 122.486 52.141 121.004C52.141 119.523 50.668 116.464 50.668 116.464C49.2576 116.807 47.8784 117.269 46.5452 117.846C44.8746 118.635 42.7159 118.24 39.9674 117.352C37.2188 116.464 37.03 113.895 36.2455 112.323C35.4611 110.751 38.8953 108.472 39.5809 107.286C40.2666 106.1 44.9821 95.2421 45.1796 94.0558C45.3772 92.8695 48.024 92.5773 51.5715 91.4904C51.5599 91.4846 59.2185 87.9286 61.0838 88.028Z" fill="#328BD4" stroke="#263238" stroke-miterlimit="10"/>
<path d="M57.1643 126.036C59.724 123.213 65.9677 116.648 70.4914 114.518" stroke="#263238" stroke-miterlimit="10"/>
<path d="M55.9993 127.348C55.9993 127.348 56.2491 127.055 56.6966 126.559" stroke="#263238" stroke-miterlimit="10"/>
<path d="M61.4121 119.952C61.6736 119.754 61.9351 119.558 62.1937 119.368" stroke="#263238" stroke-miterlimit="10"/>
<path d="M56.4961 124.359C56.4961 124.359 58.2161 122.605 60.2353 120.899" stroke="#263238" stroke-miterlimit="10"/>
<path d="M47.068 101.369C47.9396 104.668 49.1686 109.13 49.6451 110.31C50.4295 112.244 50.9293 115.54 50.9293 115.54" fill="white"/>
<path d="M47.068 101.369C47.9396 104.668 49.1686 109.13 49.6451 110.31C50.4295 112.244 50.9293 115.54 50.9293 115.54" stroke="#263238" stroke-miterlimit="10"/>
<path d="M46.0861 97.6321C46.0861 97.6321 46.3766 98.7278 46.7805 100.285L46.0861 97.6321Z" fill="white"/>
<path d="M46.0861 97.6321C46.0861 97.6321 46.3766 98.7278 46.7805 100.285" stroke="#263238" stroke-miterlimit="10"/>
<path d="M45.5515 105.235C45.1324 104.933 44.6616 104.711 44.1627 104.58" stroke="#263238" stroke-miterlimit="10"/>
<path d="M43.3638 106.813C44.4359 107.043 45.7317 107.511 46.4406 108.449C47.1044 109.299 47.7232 110.183 48.2942 111.099C48.2942 111.099 48.4366 109.737 47.44 107.66C47.163 107.066 46.8104 106.511 46.3912 106.009" stroke="#263238" stroke-miterlimit="10"/>
<path d="M41.6001 106.588C41.6001 106.588 41.8761 106.588 42.3032 106.64" stroke="#263238" stroke-miterlimit="10"/>
<path d="M39.8888 108.376C39.8888 108.376 42.4543 107.16 44.9471 108.163" stroke="#263238" stroke-miterlimit="10"/>
<path d="M77.2058 100.411L75.0006 116.113" stroke="#263238" stroke-miterlimit="10"/>
<path d="M77.6358 97.3458L77.4005 99.0347" stroke="#263238" stroke-miterlimit="10"/>
<path d="M80.823 107.114C81.2783 106.849 81.7669 106.648 82.2757 106.515" stroke="#263238" stroke-miterlimit="10"/>
<path d="M75.4276 114.252C75.4276 114.252 75.6426 112.604 77.7781 109.811C78.4536 108.913 79.2701 108.132 80.1954 107.499" stroke="#263238" stroke-miterlimit="10"/>
<path d="M75.7124 114.395C75.7124 114.395 78.0629 111.312 80.7707 111.026" stroke="#263238" stroke-miterlimit="10"/>
<path d="M59.9042 87.2391C59.9042 87.2391 58.2365 87.3384 57.8413 88.2267C57.4462 89.1149 57.4491 96.7176 57.4491 96.7176C57.4491 96.7176 63.1437 94.5438 63.9281 94.5438C64.7126 94.5438 70.8023 96.9134 70.8023 96.9134C70.8023 96.9134 70.015 91.3852 68.6407 89.2143C67.2665 87.0433 64.9102 87.1397 64.1257 87.1397C63.3413 87.1397 59.9042 87.2391 59.9042 87.2391Z" fill="white" stroke="#263238" stroke-miterlimit="10"/>
<path d="M58.4312 86.5466L58.8234 88.6211C58.8234 88.6211 63.8323 98.2954 64.4192 97.6058C65.0061 96.9163 67.9551 89.0155 67.9551 89.0155L68.1497 86.2514C68.1497 86.2514 65.7934 87.8322 64.4192 87.8322C63.0449 87.8322 58.8234 85.559 58.8234 85.559L58.4312 86.5466Z" fill="white" stroke="#263238" stroke-miterlimit="10"/>
<path d="M68.1497 86.2514C68.1497 86.2514 65.7934 87.8322 64.4192 87.8322C63.0449 87.8322 58.8234 85.559 58.8234 85.559L58.4312 86.5466L58.8234 88.6211C58.8234 88.6211 59.9536 90.8037 61.2029 93.0214C61.4029 92.9463 61.5971 92.8564 61.784 92.7526C67.2491 89.67 68.1497 86.2514 68.1497 86.2514Z" fill="#263238" stroke="#263238" stroke-miterlimit="10"/>
<path d="M56.2375 78.9965C56.2375 78.9965 55.1073 76.7233 54.317 78.6546C53.5267 80.586 56.9145 83.1981 56.9145 83.1981L56.2375 78.9965Z" fill="#FFBF9D" stroke="#263238" stroke-miterlimit="10"/>
<path d="M69.5123 78.4881C69.5123 78.4881 70.5815 76.2704 71.148 78.3157C71.7146 80.361 69.4048 82.9702 69.4048 82.9702L69.5123 78.4881Z" fill="#FFBF9D" stroke="#263238" stroke-miterlimit="10"/>
<path d="M56.0109 78.4296C56.0109 78.4296 56.804 84.4515 57.2544 85.4742C57.6408 86.3508 61.1796 89.4158 62.2139 90.3011C62.3964 90.4569 62.6282 90.5419 62.8676 90.5407C63.5266 90.5559 64.1859 90.5237 64.8404 90.4443C65.2936 90.3303 68.3269 87.5224 69.0009 85.9271C69.675 84.3317 69.4542 75.1366 69.4542 75.1366C69.4542 75.1366 69.1142 69.1176 68.4373 68.3228C67.7603 67.5281 59.2881 67.5251 57.1411 68.6617C54.994 69.7984 54.9969 71.7297 55.3339 72.8663C55.6709 74.0029 56.0109 78.4296 56.0109 78.4296Z" fill="#FFBF9D" stroke="#263238" stroke-miterlimit="10"/>
<path d="M65.6481 66.3974C62.0512 65.8276 60.6798 66.8736 58.6112 68.1972C58.1032 68.2861 57.609 68.4413 57.141 68.6589C54.9969 69.7955 54.9969 71.7269 55.3339 72.8635C55.6709 74.0001 56.0108 78.415 56.0108 78.415L56.804 78.529C56.804 78.529 56.9144 75.9168 57.0277 75.5779C57.141 75.2389 58.4979 73.6465 58.6112 72.8518C58.7245 72.057 58.4979 69.7838 58.4979 69.7838C58.4979 69.7838 59.7385 73.7605 64.483 75.1221C65.6161 75.4539 66.7893 75.627 67.9695 75.6363C68.0305 76.2879 68.1409 76.9044 68.3385 77.0534L68.7888 77.3953C68.7888 77.3953 68.6755 78.9848 69.0154 79.3237C69.1481 79.4517 69.3163 79.5363 69.4977 79.5662C69.5122 77.8394 69.4977 76.2587 69.4774 75.537C71.6187 75.2302 71.2991 74.4325 71.3659 73.4683C71.4647 71.8905 69.9393 67.0811 65.6481 66.3974Z" fill="#263238" stroke="#263238" stroke-miterlimit="10"/>
<path d="M61.6475 83.1835C61.9407 83.6522 62.3847 84.0059 62.9055 84.1857C63.6929 84.3961 64.5325 84.4487 65.4216 83.0783" stroke="#263238" stroke-miterlimit="10"/>
<path d="M60.3894 85.1324C60.3894 85.1324 61.386 86.345 63.536 86.2398C65.686 86.1346 66.4704 85.2405 66.4704 85.2405" stroke="#263238" stroke-miterlimit="10"/>
<path d="M58.9744 80.4399C59.3911 80.6577 59.8473 80.7887 60.3156 80.8248C60.784 80.861 61.2547 80.8016 61.6996 80.6503" stroke="#263238" stroke-miterlimit="10"/>
<path d="M65.1077 80.6502C65.617 80.8559 66.1621 80.9571 66.7109 80.9481C67.2597 80.9391 67.8012 80.8199 68.3036 80.5977" stroke="#263238" stroke-miterlimit="10"/>
<path d="M58.6055 78.7014C58.6055 78.7014 59.4451 77.4362 61.6997 78.2251" stroke="#263238" stroke-miterlimit="10"/>
<path d="M65.16 78.488C65.614 78.1927 66.151 78.0539 66.6903 78.0923C67.2296 78.1308 67.7418 78.3445 68.1497 78.7013" stroke="#263238" stroke-miterlimit="10"/>
<path d="M61.6473 81.3515C61.6473 81.3515 60.6507 82.1433 60.1801 82.3011" stroke="#263238" stroke-miterlimit="10"/>
<path d="M65.0031 81.1791C65.0031 81.1791 66.1042 82.3478 66.8393 82.602" stroke="#263238" stroke-miterlimit="10"/>
<path d="M74.5734 115.61C74.5734 115.61 75.9971 114.538 78.2778 113.103C80.5586 111.669 82.7638 112.101 83.9753 113.463C85.1869 114.824 85.3292 118.62 83.4756 120.268C81.622 121.916 79.132 121.483 77.566 121.054C76 120.624 74.0795 118.976 73.9313 118.62C73.7832 118.263 74.5734 115.61 74.5734 115.61Z" fill="#328BD4" stroke="#263238" stroke-miterlimit="10"/>
<path d="M75.5003 114.824C75.5003 114.824 76.2122 113.962 77.2087 113.892C78.2053 113.822 79.9863 114.751 80.4046 117.045C80.823 119.339 79.8236 121.197 78.6236 121.77C77.4237 122.342 75.4916 121.986 75.0645 121.34C74.7214 120.749 74.4354 120.125 74.2103 119.479L75.5003 114.824Z" fill="white" stroke="#263238" stroke-miterlimit="10"/>
<path d="M74.1406 112.388C74.1406 112.388 70.2241 109.174 69.797 109.022C69.3699 108.87 66.3774 109.811 66.3774 109.811L67.1618 112.747C67.1618 112.747 66.8045 113.039 65.6656 112.031C64.5266 111.023 63.8148 109.667 63.3877 110.097C62.9606 110.526 62.7456 111.385 63.7422 112.461C64.7387 113.536 66.0926 114.968 66.8045 115.967C67.5163 116.966 69.582 117.472 69.582 117.472C69.582 117.472 70.0818 118.401 72.0051 119.333C73.9285 120.265 76.9182 120.838 76.9182 120.838C76.9182 120.838 78.9839 118.544 78.1995 116.54C78.0079 115.988 77.6362 115.518 77.145 115.206C76.6539 114.894 76.0721 114.758 75.4945 114.822L74.5677 114.605L74.1406 112.388Z" fill="#FFBF9D" stroke="#263238" stroke-miterlimit="10"/>
<path d="M68.8527 108.388C68.8527 108.388 66.5284 106.485 65.9154 106.573C65.3023 106.661 63.9688 107.321 63.44 107.692C62.9112 108.063 63.3848 108.785 64.0211 108.759C64.5231 108.721 65.0209 108.639 65.5086 108.513L65.8834 108.306L67.5773 110.968" fill="white"/>
<path d="M68.8527 108.388C68.8527 108.388 66.5284 106.485 65.9154 106.573C65.3023 106.661 63.9688 107.321 63.44 107.692C62.9112 108.063 63.3848 108.785 64.0211 108.759C64.5231 108.721 65.0209 108.639 65.5086 108.513L65.8834 108.306L67.5773 110.968" stroke="#263238" stroke-miterlimit="10"/>
<path d="M65.8834 108.306L66.7928 107.888" stroke="#263238" stroke-miterlimit="10"/>
<path d="M71.5257 108.247C71.5257 108.247 69.2014 106.348 68.5913 106.436C67.9811 106.523 66.6417 107.181 66.113 107.555C65.5842 107.929 66.0578 108.645 66.694 108.621C67.1963 108.583 67.6941 108.5 68.1816 108.373L68.5564 108.168L70.2473 110.827" fill="#FFBF9D"/>
<path d="M71.5257 108.247C71.5257 108.247 69.2014 106.348 68.5913 106.436C67.9811 106.523 66.6417 107.181 66.113 107.555C65.5842 107.929 66.0578 108.645 66.694 108.621C67.1963 108.583 67.6941 108.5 68.1816 108.373L68.5564 108.168L70.2473 110.827" stroke="#263238" stroke-miterlimit="10"/>
<path d="M68.5564 108.168L69.4658 107.748" stroke="#263238" stroke-miterlimit="10"/>
<path d="M73.6467 110.167C73.6467 110.167 72.5078 107.374 71.9383 107.16C71.3688 106.947 69.8726 106.868 69.2334 106.944C68.5942 107.02 68.6523 107.876 69.2334 108.163C69.6921 108.372 70.1686 108.539 70.657 108.662H71.0841L71.2962 111.815" fill="#FFBF9D"/>
<path d="M73.6467 110.167C73.6467 110.167 72.5078 107.374 71.9383 107.16C71.3688 106.947 69.8726 106.868 69.2334 106.944C68.5942 107.02 68.6523 107.876 69.2334 108.163C69.6921 108.372 70.1686 108.539 70.657 108.662H71.0841L71.2962 111.815" stroke="#263238" stroke-miterlimit="10"/>
<path d="M71.0841 108.662L72.0807 108.735" stroke="#263238" stroke-miterlimit="10"/>
<path d="M74.2888 115.181C74.2888 115.181 74.9309 111.745 74.7886 111.382C74.6462 111.02 73.4346 109.448 73.0773 109.448C72.7199 109.448 72.011 110.164 72.2957 110.88C72.3569 111.075 72.4681 111.251 72.618 111.389C72.7679 111.528 72.9513 111.624 73.1499 111.669V113.673L72.5078 114.535" fill="#FFBF9D"/>
<path d="M74.2888 115.181C74.2888 115.181 74.9309 111.745 74.7886 111.382C74.6462 111.02 73.4346 109.448 73.0773 109.448C72.7199 109.448 72.011 110.164 72.2957 110.88C72.3569 111.075 72.4681 111.251 72.618 111.389C72.7679 111.528 72.9513 111.624 73.1499 111.669V113.673L72.5078 114.535" stroke="#263238" stroke-miterlimit="10"/>
<path d="M67.1734 119.175H54.407L53.6981 103.759H67.8823L67.1734 119.175Z" fill="#263238" stroke="#263238" stroke-miterlimit="10"/>
<path d="M47.8292 112.414C47.8292 112.414 42.8232 108.762 42.3322 108.566C41.8412 108.37 39.0927 109.55 37.5208 110.737C35.949 111.923 36.0478 113.106 36.6492 114.588C37.2506 116.069 39.5924 117.945 40.4785 118.635C41.3647 119.324 45.5833 118.927 45.5833 118.927L47.8292 112.414Z" fill="#328BD4" stroke="#263238" stroke-miterlimit="10"/>
<path d="M48.8112 112.908C48.8112 112.908 47.7304 111.33 47.2394 111.231C46.7484 111.131 45.2754 112.218 44.4909 113.206C43.7064 114.193 42.9191 116.858 42.9191 118.24C42.9191 119.622 45.2754 120.017 45.6676 120.017C46.0598 120.017 46.6496 118.833 47.3382 118.439C48.0268 118.044 48.8112 112.908 48.8112 112.908Z" fill="white" stroke="#263238" stroke-miterlimit="10"/>
<path d="M63.536 117.831C63.536 117.831 65.3141 117.831 65.7412 117.539C66.1683 117.247 67.5222 115.248 67.7372 114.819C67.9522 114.389 67.0951 114.389 66.5982 115.318C66.1014 116.247 64.1751 116.966 63.6928 117.253C63.1682 117.484 62.6182 117.653 62.0542 117.755L63.536 117.831Z" fill="white" stroke="#263238" stroke-miterlimit="10"/>
<path d="M47.8293 112.414L54.9969 113.2C54.9969 113.2 56.159 109.843 56.6646 109.743C57.721 109.384 58.7399 108.921 59.7065 108.361C60.1017 108.069 60.7874 107.669 60.3951 108.756C60.0029 109.843 57.8413 110.93 57.8413 110.93C57.8413 110.93 59.8053 112.212 60.3951 112.312C60.9849 112.411 65.1077 111.52 65.1077 111.52C65.1077 111.52 68.1496 110.351 68.446 110.532C68.7423 110.713 67.955 111.52 67.955 111.52C67.955 111.52 68.5361 111.125 68.7394 111.619C68.9428 112.113 68.2484 113.101 68.2484 113.101C68.2484 113.101 68.539 113.296 68.3472 114.088C68.1555 114.88 65.4999 117.048 64.9101 117.445C64.3203 117.843 61.1796 117.939 59.1197 117.939C57.6065 117.909 56.0972 117.776 54.6018 117.542C54.6018 117.542 46.3562 118.927 45.964 118.927C45.5718 118.927 43.6077 114.883 47.8293 112.414Z" fill="#FFBF9D" stroke="#263238" stroke-miterlimit="10"/>
<path d="M67.9551 111.526C67.9551 111.526 64.1257 114.488 63.6347 114.488C63.1437 114.488 60.1976 115.277 60.1976 115.277" fill="#FFBF9D"/>
<path d="M67.9551 111.526C67.9551 111.526 64.1257 114.488 63.6347 114.488C63.1437 114.488 60.1976 115.277 60.1976 115.277" stroke="#263238" stroke-miterlimit="10"/>
<path d="M68.2485 113.106C68.2485 113.106 65.2065 115.771 64.9101 115.97C64.6138 116.169 61.7694 116.659 61.7694 116.659" fill="#FFBF9D"/>
<path d="M68.2485 113.106C68.2485 113.106 65.2065 115.771 64.9101 115.97C64.6138 116.169 61.7694 116.659 61.7694 116.659" stroke="#263238" stroke-miterlimit="10"/>
<path d="M95.3501 138.988C92.712 134.632 84.6437 122.094 79.5302 122.585C73.3446 123.169 53.6111 131.272 53.6111 131.272L89.4231 138.988H95.3501Z" fill="#263238" stroke="#263238" stroke-miterlimit="10"/>
<path d="M51.4581 138.988V122.55C51.4627 122.095 51.2879 121.658 50.9719 121.333C50.656 121.008 50.2248 120.823 49.7729 120.817H37.149C36.6971 120.823 36.2659 121.008 35.95 121.333C35.634 121.658 35.4592 122.095 35.4638 122.55V139L51.4581 138.988Z" fill="#D4D4D4" stroke="#263238" stroke-miterlimit="10"/>
<path d="M55.581 138.988V122.594C55.5911 122.368 55.5569 122.142 55.4803 121.93C55.4038 121.717 55.2863 121.522 55.1347 121.355C54.9831 121.188 54.8002 121.053 54.5966 120.957C54.393 120.861 54.1727 120.807 53.9481 120.797H45.3539C44.902 120.817 44.4765 121.017 44.1706 121.352C43.8646 121.687 43.703 122.13 43.7211 122.585V138.98L55.581 138.988Z" fill="#D4D4D4" stroke="#263238" stroke-miterlimit="10"/>
<path d="M11.9503 138.988H4.43982" stroke="#263238" stroke-miterlimit="10"/>
<path d="M134.985 138.988H15.2043" stroke="#263238" stroke-miterlimit="10"/>
</svg>
